<svg width="16" height="16" viewBox="0 0 16 16" fill="none" xmlns="http://www.w3.org/2000/svg">
<g id="Group">
<path id="Vector" d="M0 14.2769C0 10.0923 0 5.90765 0 1.72303C0.0125163 1.68548 0.0250327 1.64376 0.0333769 1.60621C0.196089 0.717556 0.984616 0.0208161 1.88162 0.0124719C3.08318 -4.4375e-05 4.28475 -0.00421647 5.48631 0.0124719C6.42503 0.0249882 7.24694 0.780138 7.33872 1.71886C7.38044 2.13607 7.36793 2.56162 7.36793 2.98301C7.3721 5.0023 7.36793 7.0216 7.36793 9.03672C7.36793 10.693 7.36793 12.3452 7.35958 14.0015C7.35541 14.7859 7.00913 15.3825 6.32073 15.7621C6.10795 15.879 5.85346 15.9249 5.61982 16C4.31812 16 3.01643 16 1.71473 16C1.6897 15.9916 1.66884 15.9749 1.64381 15.9708C0.83442 15.8247 0.225293 15.2532 0.041721 14.4605C0.0333768 14.3937 0.0166884 14.3353 0 14.2769Z" fill="black"/>
<path id="Vector_2" d="M14.2771 15.9957C12.9754 15.9957 11.6737 15.9957 10.372 15.9957C10.347 15.9874 10.3261 15.9749 10.3011 15.9707C9.31648 15.7997 8.63643 15.0153 8.63226 14.0265C8.62809 12.8834 8.62391 11.736 8.63226 10.5929C8.6406 9.49979 9.49588 8.64033 10.5848 8.63199C11.7446 8.62365 12.9045 8.62365 14.0643 8.63199C15.1157 8.64033 15.9835 9.50396 15.9877 10.5553C15.996 11.7277 15.996 12.8959 15.9877 14.0682C15.9835 14.9569 15.3577 15.7246 14.4941 15.9373C14.4231 15.954 14.348 15.9749 14.2771 15.9957Z" fill="black"/>
<path id="Vector_3" d="M12.3077 0.00417204C12.8751 0.00417204 13.4425 0.00417204 14.0099 0.00417204C15.1238 0.00834413 15.9874 0.867796 15.9916 1.98175C15.9958 3.11656 15.9958 4.25137 15.9916 5.38618C15.9874 6.48761 15.1405 7.35541 14.0391 7.36375C12.8876 7.3721 11.7361 7.3721 10.5888 7.36375C9.48732 7.35541 8.63621 6.49179 8.62786 5.39035C8.62369 4.25137 8.61952 3.11239 8.62786 1.96923C8.63204 0.85528 9.50401 0 10.6221 0C11.1854 0.0041721 11.7444 0.00417204 12.3077 0.00417204Z" fill="black"/>
</g>
</svg>
