<svg width="19" height="16" viewBox="0 0 19 16" fill="none" xmlns="http://www.w3.org/2000/svg">
<path id="Vector" fill-rule="evenodd" clip-rule="evenodd" d="M12.9544 0C13.4786 1.78146e-05 13.9926 0.146008 14.4386 0.421618C14.8845 0.697227 15.245 1.09157 15.4795 1.56047L16.784 4.16847C17.0136 4.07435 17.2395 3.97271 17.4616 3.86353C17.6851 3.75195 17.9436 3.73369 18.1805 3.81276C18.4174 3.89184 18.6131 4.06177 18.7247 4.28518C18.8363 4.50858 18.8545 4.76716 18.7755 5.00403C18.6964 5.2409 18.5265 5.43666 18.3031 5.54824C18.0768 5.64894 17.8494 5.74683 17.6207 5.84188L18.5252 7.65176C18.7215 8.04419 18.8236 8.47697 18.8235 8.91576V11.2941C18.8241 11.6915 18.7405 12.0844 18.5783 12.4472C18.4161 12.8099 18.1789 13.1341 17.8824 13.3986V14.5882C17.8824 14.9627 17.7336 15.3217 17.4689 15.5865C17.2041 15.8513 16.845 16 16.4706 16C16.0962 16 15.7371 15.8513 15.4723 15.5865C15.2076 15.3217 15.0588 14.9627 15.0588 14.5882V14.1176H3.76471V14.5882C3.76471 14.9627 3.61597 15.3217 3.35121 15.5865C3.08645 15.8513 2.72736 16 2.35294 16C1.97852 16 1.61943 15.8513 1.35467 15.5865C1.08992 15.3217 0.941176 14.9627 0.941176 14.5882V13.3986C0.363294 12.8809 0 12.1299 0 11.2941V8.91482C0.000175886 8.47667 0.102321 8.04456 0.298353 7.65271L1.19529 5.85694C0.968471 5.76094 0.743529 5.65929 0.522353 5.54918C0.300077 5.43615 0.131115 5.2403 0.0518895 5.00386C-0.0273359 4.76741 -0.01048 4.50931 0.0988235 4.28518C0.154032 4.17452 0.230506 4.07583 0.323874 3.99474C0.417243 3.91366 0.525676 3.85177 0.642976 3.81261C0.760275 3.77345 0.884142 3.75779 1.0075 3.76653C1.13085 3.77527 1.25127 3.80823 1.36188 3.86353C1.584 3.97365 1.81082 4.07435 2.03953 4.16847L3.344 1.56141C3.5784 1.09233 3.93879 0.6978 4.3848 0.422018C4.8308 0.146237 5.3448 0.000105209 5.86918 0H12.9544ZM5.17647 8.47059C4.80205 8.47059 4.44296 8.61933 4.1782 8.88408C3.91344 9.14884 3.76471 9.50793 3.76471 9.88235C3.76471 10.2568 3.91344 10.6159 4.1782 10.8806C4.44296 11.1454 4.80205 11.2941 5.17647 11.2941C5.55089 11.2941 5.90998 11.1454 6.17474 10.8806C6.4395 10.6159 6.58824 10.2568 6.58824 9.88235C6.58824 9.50793 6.4395 9.14884 6.17474 8.88408C5.90998 8.61933 5.55089 8.47059 5.17647 8.47059ZM13.6471 8.47059C13.2726 8.47059 12.9135 8.61933 12.6488 8.88408C12.384 9.14884 12.2353 9.50793 12.2353 9.88235C12.2353 10.2568 12.384 10.6159 12.6488 10.8806C12.9135 11.1454 13.2726 11.2941 13.6471 11.2941C14.0215 11.2941 14.3806 11.1454 14.6453 10.8806C14.9101 10.6159 15.0588 10.2568 15.0588 9.88235C15.0588 9.50793 14.9101 9.14884 14.6453 8.88408C14.3806 8.61933 14.0215 8.47059 13.6471 8.47059ZM12.9544 1.88235H5.86918C5.71427 1.88233 5.56175 1.92054 5.42515 1.9936C5.28855 2.06667 5.17209 2.17231 5.08612 2.30118L5.02776 2.40282L3.83247 4.79153C5.28941 5.22823 7.25271 5.64706 9.41176 5.64706C11.4278 5.64706 13.2715 5.28188 14.6918 4.87812L14.9901 4.79153L13.7958 2.40282C13.7265 2.2643 13.6241 2.145 13.4977 2.05553C13.3713 1.96605 13.2247 1.90915 13.0711 1.88988L12.9553 1.88235H12.9544Z" fill="black"/>
</svg>
