<svg width="18" height="16" viewBox="0 0 18 16" fill="none" xmlns="http://www.w3.org/2000/svg">
<path id="Vector" fill-rule="evenodd" clip-rule="evenodd" d="M13.2495 3.99985C13.7799 3.99985 14.2886 3.78914 14.6637 3.41409C15.0387 3.03903 15.2494 2.53034 15.2494 1.99993C15.2494 1.46951 15.0387 0.960823 14.6637 0.585764C14.2886 0.210706 13.7799 0 13.2495 0C12.7191 0 12.2104 0.210706 11.8353 0.585764C11.4603 0.960823 11.2496 1.46951 11.2496 1.99993C11.2496 2.53034 11.4603 3.03903 11.8353 3.41409C12.2104 3.78914 12.7191 3.99985 13.2495 3.99985ZM15.9029 10.6346C16.1929 11.5796 16.5569 12.571 16.7839 13.1695C16.8101 13.2377 16.8211 13.3109 16.816 13.3838C16.8108 13.4568 16.7898 13.5277 16.7543 13.5916C16.7187 13.6555 16.6696 13.7108 16.6104 13.7536C16.5511 13.7965 16.4832 13.8258 16.4114 13.8395C14.1425 14.257 12.58 14.246 10.1146 13.833C10.0407 13.8199 9.97069 13.7904 9.9096 13.7468C9.84851 13.7033 9.7979 13.6466 9.76146 13.581C9.72502 13.5154 9.70366 13.4425 9.69893 13.3676C9.6942 13.2927 9.70623 13.2177 9.73414 13.148C9.96963 12.553 10.3381 11.5816 10.6241 10.6381C9.71614 10.5481 8.99966 9.49114 8.99966 8.20019C8.99966 6.85024 9.78313 5.75528 10.7496 5.75528H10.7561C10.743 5.66124 10.7503 5.56548 10.7773 5.47447C10.8044 5.38346 10.8507 5.29931 10.913 5.22771C10.9754 5.1561 11.0524 5.09871 11.1388 5.0594C11.2253 5.02008 11.3191 4.99976 11.4141 4.99981H15.0854C15.1804 4.99982 15.2743 5.02021 15.3608 5.05961C15.4472 5.09902 15.5242 5.15652 15.5866 5.22822C15.6489 5.29993 15.6951 5.38418 15.7221 5.47528C15.749 5.56638 15.7561 5.6622 15.7429 5.75628H15.7494C16.7159 5.75628 17.4993 6.85074 17.4993 8.20069C17.4993 9.47815 16.7974 10.5271 15.9029 10.6356M11.7306 7.75521C11.9331 7.30423 11.9996 6.62525 11.9996 5.75079H12.9995C12.9995 6.62575 12.941 7.49972 12.6435 8.16419C12.4885 8.50868 12.262 8.81617 11.9311 9.03416C11.5991 9.25315 11.2016 9.35565 10.7496 9.35565V8.35569C11.0476 8.35569 11.2436 8.28969 11.3806 8.19919C11.5186 8.1087 11.6356 7.9682 11.7306 7.75521ZM14.4995 5.74978C14.4995 6.62475 14.566 7.30323 14.7684 7.75421C14.8634 7.9672 14.9804 8.1077 15.1184 8.19819C15.2554 8.28819 15.4514 8.35519 15.7494 8.35519V9.35515C15.2974 9.35515 14.8994 9.25165 14.568 9.03316C14.237 8.81517 14.0105 8.50768 13.8555 8.16319C13.558 7.49822 13.4995 6.62525 13.4995 5.74978H14.4995ZM10.9996 14.5755V15.2494C10.9998 15.4312 11.0659 15.6067 11.1858 15.7433C11.3057 15.8799 11.471 15.9683 11.6512 15.9922C11.8314 16.016 12.0141 15.9736 12.1653 15.8728C12.3166 15.7721 12.4261 15.6199 12.4735 15.4444L12.671 14.7124C12.1121 14.6924 11.5543 14.647 10.9996 14.5755ZM14.32 14.684L14.525 15.4439C14.572 15.6198 14.6815 15.7725 14.8329 15.8737C14.9843 15.9748 15.1673 16.0174 15.3478 15.9935C15.5282 15.9697 15.6939 15.8809 15.8138 15.7439C15.9337 15.6069 15.9997 15.431 15.9994 15.2489V14.4995C15.4423 14.5835 14.882 14.6447 14.32 14.684ZM3.97235 3.99985C4.50276 3.99985 5.01145 3.78914 5.38651 3.41409C5.76157 3.03903 5.97228 2.53034 5.97228 1.99993C5.97228 1.46951 5.76157 0.960823 5.38651 0.585764C5.01145 0.210706 4.50276 0 3.97235 0C3.44194 0 2.93325 0.210706 2.55819 0.585764C2.18313 0.960823 1.97243 1.46951 1.97243 1.99993C1.97243 2.53034 2.18313 3.03903 2.55819 3.41409C2.93325 3.78914 3.44194 3.99985 3.97235 3.99985ZM5.81228 15.9974C6.06617 15.9815 6.30444 15.8694 6.47861 15.684C6.65278 15.4986 6.74974 15.2538 6.74975 14.9994V10.6491C7.73671 10.4991 8.50018 9.47015 8.50018 8.22319C8.50018 6.93824 7.69021 5.88528 6.65975 5.78628C6.71216 5.71133 6.743 5.62344 6.74892 5.53218C6.75484 5.44091 6.73562 5.34977 6.69334 5.26867C6.65107 5.18758 6.58736 5.11963 6.50915 5.07222C6.43094 5.02482 6.34122 4.99977 6.24977 4.99981H2.24992C2.15846 4.99977 2.06875 5.02482 1.99053 5.07222C1.91232 5.11963 1.84861 5.18758 1.80634 5.26867C1.76406 5.34977 1.74484 5.44091 1.75076 5.53218C1.75669 5.62344 1.78753 5.71133 1.83993 5.78628C0.80997 5.88628 0 6.93874 0 8.22319C0 9.46965 0.763471 10.4981 1.74993 10.6486V14.9994C1.75046 15.2532 1.84744 15.4972 2.02121 15.6821C2.19497 15.867 2.43254 15.979 2.68576 15.9953C2.93898 16.0115 3.18891 15.9309 3.38492 15.7698C3.58093 15.6086 3.70835 15.379 3.74136 15.1274L4.14584 11.9996H4.36784L4.75782 15.1234C4.78939 15.376 4.91611 15.6071 5.11213 15.7695C5.30815 15.9318 5.55823 16.0134 5.81228 15.9974ZM2.51341 7.83471C2.7199 7.40872 2.8024 6.73425 2.8024 5.77878H3.80236C3.80236 6.73875 3.72886 7.61971 3.41387 8.27069C3.24938 8.60968 3.01389 8.90017 2.6809 9.10116C2.35041 9.30115 1.96193 9.39015 1.52744 9.39015V8.39019C1.82493 8.39019 2.02392 8.33019 2.16342 8.24519C2.30091 8.16269 2.41741 8.0342 2.51341 7.83471ZM5.58629 5.77878C5.58629 6.73375 5.66879 7.40872 5.87528 7.83471C5.97178 8.0342 6.08827 8.16269 6.22527 8.24569C6.36526 8.32969 6.56375 8.39069 6.86124 8.39069V9.39065C6.42726 9.39065 6.03827 9.30065 5.70779 9.10116C5.3753 8.90017 5.13931 8.60968 4.97531 8.27069C4.66033 7.61971 4.58633 6.73825 4.58633 5.77878H5.58629Z" fill="black"/>
</svg>
