<svg width="18" height="16" viewBox="0 0 18 16" fill="none" xmlns="http://www.w3.org/2000/svg">
<path id="Vector" d="M6.05647 3.52872L2.80834 2.66602L3.39903 0.492597C3.44671 0.321496 3.56007 0.176165 3.71441 0.0882559C3.86875 0.000346546 4.05157 -0.0230202 4.22306 0.0232446L6.16981 0.545932C6.25464 0.56838 6.33421 0.607354 6.40395 0.66062C6.47368 0.713886 6.53222 0.780394 6.5762 0.856332C6.62017 0.93227 6.64873 1.01614 6.66022 1.10314C6.67171 1.19014 6.66591 1.27855 6.64316 1.3633L6.05647 3.52872ZM0.0295598 13.3371C-0.0074415 13.2175 -0.00975335 13.0899 0.0228928 12.9691L2.44832 4.00074L5.69512 4.86344L3.26969 13.8318C3.23721 13.953 3.1711 14.0626 3.07902 14.1478L1.13627 15.9439C1.11117 15.9667 1.08075 15.9829 1.04778 15.9909C1.01481 15.9989 0.980361 15.9985 0.947584 15.9898C0.914808 15.981 0.884754 15.9642 0.860178 15.9408C0.835603 15.9174 0.817292 15.8882 0.806925 15.8559L0.0295598 13.3371ZM12.0007 5.33279C9.00059 5.33279 8.00055 4.33275 8.00055 1.33263C11.0007 1.33263 12.0007 2.33267 12.0007 5.33279ZM10.134 15.9786C8.30723 16.2586 5.9658 13.7038 5.44045 10.9117L6.62583 6.53284C7.15785 6.06616 7.82988 5.82215 8.5179 5.82215C9.26367 5.81908 9.99212 6.04684 10.6033 6.47417C10.8185 6.61858 11.0723 6.69458 11.3314 6.6922C11.5905 6.68982 11.8429 6.60917 12.0554 6.46084C12.6185 6.04367 13.3013 5.81964 14.0021 5.82215C15.0288 5.82215 16.1929 6.47417 16.7356 7.42354C18.7837 11.0184 15.1435 16.3692 12.5434 15.9799C12.4243 15.9567 12.3095 15.9148 12.2034 15.8559C11.9348 15.7182 11.6372 15.6463 11.3354 15.6463C11.0335 15.6463 10.7359 15.7182 10.4673 15.8559C10.3632 15.9137 10.2507 15.9551 10.134 15.9786Z" fill="black"/>
</svg>
