<svg width="17" height="16" viewBox="0 0 17 16" fill="none" xmlns="http://www.w3.org/2000/svg">
<path id="Vector" d="M6.82321 0.0411679L6.81939 0.0358313L6.80948 0.043455C2.98239 0.449798 0 3.68758 0 7.62369C0 9.38629 0.59846 11.0094 1.60326 12.3008V12.3024H1.60479C2.23998 13.1207 3.03548 13.8007 3.9426 14.301C4.84972 14.8012 5.84937 15.111 6.88038 15.2116C6.91622 14.8487 7.00465 14.469 7.1373 14.0855C5.49263 13.9634 3.95685 13.2172 2.8444 11.9997C2.88633 11.8167 2.90539 11.604 2.92064 11.4195L2.9275 11.3296C2.94122 11.1619 2.95418 11.0002 2.97553 10.8371C3.02889 10.4353 3.12038 10.167 3.26294 10.0152C3.44591 9.81932 3.63345 9.78654 4.02607 9.71716L4.09697 9.7042C4.29824 9.66913 4.56736 9.615 4.82656 9.47396C5.1033 9.32302 5.33735 9.09278 5.51346 8.75353C5.69109 8.41198 5.67813 8.05977 5.62934 7.7815C5.58496 7.55869 5.52639 7.33893 5.45399 7.12358C5.44218 7.08601 5.43049 7.0484 5.41892 7.01075C5.26264 6.50149 5.24358 6.25372 5.37242 6.05779C5.51269 5.84432 5.70481 5.79553 6.20492 5.66593L6.26973 5.64992C6.77746 5.51879 7.46512 5.29923 7.86308 4.45071C8.29458 3.53206 8.05138 2.496 7.78684 1.79309C7.70342 1.57228 7.6085 1.35598 7.50248 1.14508C7.54288 1.14355 7.58329 1.14355 7.62369 1.14355C8.84756 1.14169 10.0467 1.48807 11.081 2.14226C10.9347 2.33666 10.7387 2.59282 10.5199 2.86651C10.0396 3.46649 9.49836 4.08401 9.12937 4.36075C8.95947 4.48489 8.83046 4.6569 8.75886 4.85477C8.69726 5.03464 8.68282 5.2273 8.71693 5.41435C8.7703 5.73149 8.93878 6.02882 9.08821 6.256C9.21247 6.44583 9.35885 6.63719 9.48159 6.79881L9.56545 6.90783C9.63635 7.00313 9.69505 7.08165 9.73851 7.1495C9.76062 7.18228 9.77663 7.20897 9.7873 7.22879C9.79797 7.24785 9.80255 7.25852 9.80255 7.25852C9.83304 7.34238 9.86582 7.47961 9.90394 7.6702L9.92071 7.75101C10.2592 7.60006 10.6259 7.48418 11.0185 7.41176C10.984 7.22558 10.9361 7.04214 10.8752 6.86285C10.7913 6.63643 10.6091 6.39323 10.478 6.21941C10.4451 6.17613 10.412 6.13293 10.3789 6.08981C10.262 5.94001 10.1504 5.78617 10.0442 5.62857C9.92605 5.44865 9.86887 5.32439 9.84981 5.24891C10.3454 4.8662 10.9537 4.15415 11.4127 3.58161C11.6383 3.29953 11.8396 3.03652 11.9898 2.83525C13.2472 3.97947 14.0032 5.57304 14.0939 7.27072C14.5361 7.30579 14.9173 7.36373 15.2451 7.43158C15.1429 3.31021 11.7702 0 7.62369 0C7.35382 0 7.08622 0.0137226 6.82321 0.0411679ZM1.85713 10.5824C1.40279 9.69653 1.15861 8.71787 1.14354 7.72235C1.12848 6.72684 1.34292 5.74123 1.77025 4.84197C2.19758 3.94272 2.8263 3.15397 3.60766 2.53692C4.38902 1.91986 5.30201 1.49108 6.27583 1.28383C6.44925 1.57432 6.59695 1.87941 6.71724 2.19562C6.95662 2.8322 7.05268 3.48479 6.82854 3.96432C6.65701 4.32873 6.41305 4.43165 5.98384 4.5422L5.86033 4.57269C5.45475 4.67104 4.81513 4.82504 4.41717 5.42883C3.95898 6.12411 4.18465 6.88572 4.32568 7.34619L4.37143 7.49257C4.43242 7.68697 4.47816 7.83563 4.50255 7.97743C4.53152 8.14287 4.51018 8.20386 4.4995 8.2252C4.42327 8.37234 4.34703 8.43257 4.27994 8.46916C4.19608 8.5149 4.0863 8.5454 3.89723 8.57818C3.86674 8.58428 3.83319 8.58962 3.79812 8.59495C3.44515 8.65289 2.88404 8.74514 2.42738 9.23534C2.05687 9.63178 1.92193 10.1578 1.85713 10.5824ZM7.62903 15.4037C7.67477 14.668 8.0064 13.7707 8.56903 12.9252C8.75124 12.6157 8.97614 12.3024 9.24449 11.9966C10.149 10.9676 11.344 10.2367 12.6721 9.90013C12.7703 9.87556 12.8547 9.81301 12.9067 9.72622C12.9587 9.63944 12.9742 9.53554 12.9496 9.43737C12.925 9.33921 12.8625 9.25482 12.7757 9.20278C12.6889 9.15074 12.585 9.1353 12.4868 9.15987C11.0083 9.53417 9.67796 10.3478 8.67119 11.4935C8.46764 11.726 8.28238 11.9677 8.11771 12.2124C8.04265 11.9603 8.00464 11.6986 8.00488 11.4355C8.00488 10.7364 8.36091 9.97713 8.92506 9.37486C9.56843 8.69035 10.4292 8.25011 11.3608 8.12914C13.4955 7.84707 14.8205 8.0834 15.6019 8.3022C15.7074 8.33177 15.8023 8.39106 15.8751 8.47299C15.9479 8.55493 15.9956 8.65607 16.0125 8.76435C16.0295 8.87264 16.0149 8.98352 15.9707 9.08378C15.9264 9.18405 15.8542 9.26947 15.7628 9.32988C15.7193 9.35885 15.6492 9.42898 15.5645 9.58908C15.4646 9.79101 15.3829 10.0015 15.3206 10.218C15.2543 10.4345 15.191 10.6686 15.1224 10.9232L15.0781 11.0849C14.9935 11.3974 14.8997 11.7329 14.7869 12.0653C14.5643 12.7224 14.2502 13.4238 13.7219 13.962C13.1737 14.5208 12.4297 14.8693 11.4355 14.8693C10.4224 14.8693 9.71487 14.4583 9.26279 13.9857C8.95479 14.5498 8.79469 15.0812 8.7703 15.473C8.75855 15.6225 8.68859 15.7613 8.57549 15.8597C8.4624 15.958 8.3152 16.008 8.16559 15.9989C8.01598 15.9899 7.87592 15.9224 7.77557 15.811C7.67522 15.6997 7.6226 15.5534 7.62903 15.4037Z" fill="black"/>
</svg>
