<svg width="25" height="16" viewBox="0 0 25 16" fill="none" xmlns="http://www.w3.org/2000/svg">
<path d="M0 6.0622C0.203989 5.64785 0.54822 5.49485 0.994445 5.54585C1.05182 5.55223 1.10919 5.53948 1.16018 5.54585C1.72753 5.61597 2.15463 5.50123 2.54986 4.97851C3.05345 4.3028 3.83754 4.01594 4.69174 4.00956C5.7818 3.99681 6.87186 3.99681 7.96193 4.00956C8.84163 4.01594 9.58109 4.36654 10.1931 5.02313C10.7221 4.53866 11.3596 4.44941 12.0353 4.48129C12.3031 4.49403 12.5772 4.48766 12.8449 4.48766C13.374 4.48766 13.833 4.68527 14.2473 5.02313C14.7573 4.46854 15.3756 4.14343 16.1087 4.04144C16.2362 4.02231 16.3637 4.01594 16.4912 4.01594C17.5558 4.01594 18.6203 4.00956 19.6849 4.01594C20.7622 4.02869 21.61 4.49403 22.222 5.38011C22.3112 5.5076 22.3941 5.56497 22.5471 5.5586C22.9105 5.54585 23.2802 5.55222 23.6436 5.5586C24.1025 5.56497 24.4276 5.86458 24.4276 6.27894C24.4276 6.69966 24.1153 6.98652 23.6436 6.99927C23.3631 7.00564 23.089 7.00564 22.8085 7.00564C22.7957 7.00564 22.783 7.01839 22.783 7.01839C22.6746 7.70048 22.5726 8.37619 22.4579 9.04553C22.2921 10.0081 21.7694 10.7221 20.9535 11.232C18.1295 12.9978 14.6043 11.589 13.7501 8.33157C13.6162 7.8216 13.578 7.28613 13.5334 6.75703C13.4887 6.17694 13.2529 5.92833 12.6664 5.92833C12.3477 5.92833 12.029 5.92833 11.7102 5.92833C11.1875 5.92833 10.907 6.18969 10.9006 6.71241C10.8815 7.51562 10.7476 8.29332 10.4417 9.03915C9.21773 12.0161 5.32283 12.9596 2.95783 10.8559C2.30762 10.2822 2.01439 9.54275 1.90602 8.7013C1.8359 8.14033 1.7339 7.58574 1.64466 6.99927C1.41517 6.99927 1.17293 6.98652 0.924323 7.00564C0.484473 7.03752 0.172115 6.87178 0 6.4638C0 6.31718 0 6.18969 0 6.0622Z" fill="black"/>
</svg>
