<svg width="24" height="16" viewBox="0 0 24 16" fill="none" xmlns="http://www.w3.org/2000/svg">
<g clip-path="url(#clip0_921_523)">
<path fill-rule="evenodd" clip-rule="evenodd" d="M0.726922 5.6815C0.886922 5.84083 1.68559 6.3195 1.84492 6.79816C2.00492 7.27616 2.32492 10.3362 3.28359 11.1342C4.27225 11.9555 8.00159 11.6495 8.71559 11.2942C10.3136 10.4975 10.5096 7.92416 10.7923 6.7975C10.9516 6.1595 11.9103 6.1595 11.9103 6.1595C11.9103 6.1595 12.8689 6.1595 13.0289 6.79683C13.3116 7.92416 13.5089 10.5048 15.1056 11.3002C15.8203 11.6568 19.5496 11.9628 20.5396 11.1415C21.4969 10.3435 21.8163 7.2755 21.9763 6.79683C22.1349 6.31883 22.9349 5.84016 23.0943 5.68083C23.2549 5.5215 23.2549 4.8835 23.0943 4.7235C22.7749 4.40483 19.0049 4.12083 14.9456 4.56416C14.1356 4.65283 13.8276 4.88283 11.9096 4.88283C9.99292 4.88283 9.68359 4.65216 8.87426 4.56416C4.81759 4.1215 1.04692 4.4055 0.726922 4.72416C0.567589 4.8835 0.567589 5.52216 0.726922 5.6815Z" fill="black"/>
</g>
<defs>
<clipPath id="clip0_921_523">
<rect width="22.6073" height="16" fill="white" transform="translate(0.607422)"/>
</clipPath>
</defs>
</svg>
