<svg width="13" height="16" viewBox="0 0 13 16" fill="none" xmlns="http://www.w3.org/2000/svg">
<path id="Vector" d="M11.5563 0C11.774 2.87223e-05 11.9841 0.079966 12.1469 0.22465C12.3096 0.369333 12.4135 0.568701 12.439 0.784937L12.4452 0.888944V15.112C12.445 15.3386 12.3582 15.5565 12.2027 15.7213C12.0471 15.886 11.8345 15.9852 11.6084 15.9985C11.3822 16.0117 11.1595 15.9382 10.9857 15.7927C10.812 15.6473 10.7003 15.441 10.6735 15.216L10.6673 15.112V10.6673H9.77838C9.56065 10.6673 9.3505 10.5874 9.18779 10.4427C9.02508 10.298 8.92113 10.0986 8.89566 9.88239L8.88944 9.77838V4.44472C8.88944 2.48015 10.2229 0 11.5563 0ZM6.22261 0C6.44034 2.87223e-05 6.65049 0.079966 6.81319 0.22465C6.9759 0.369333 7.07985 0.568701 7.10533 0.784937L7.11155 0.888944V5.33366C7.11144 6.12204 6.84947 6.88805 6.36677 7.51138C5.88406 8.13471 5.20798 8.58004 4.44472 8.77743V15.112C4.44447 15.3386 4.35771 15.5565 4.20217 15.7213C4.04663 15.886 3.83406 15.9852 3.60787 15.9985C3.38169 16.0117 3.15897 15.9382 2.98522 15.7927C2.81147 15.6473 2.69981 15.441 2.67305 15.216L2.66683 15.112V8.77743C1.93386 8.58794 1.28044 8.16956 0.801618 7.58315C0.322794 6.99673 0.0435318 6.27285 0.00444482 5.51678L0 5.33366V0.888944C0.000251311 0.66237 0.0870088 0.444443 0.242547 0.27969C0.398084 0.114937 0.610663 0.0157921 0.836847 0.00251383C1.06303 -0.0107644 1.28575 0.0628257 1.4595 0.208248C1.63324 0.353671 1.7449 0.559949 1.77166 0.784937L1.77789 0.888944V5.33366C1.7779 5.64574 1.86005 5.95232 2.01609 6.22258C2.17213 6.49284 2.39656 6.71727 2.66683 6.87331V0.888944C2.66708 0.66237 2.75384 0.444443 2.90938 0.27969C3.06492 0.114937 3.27749 0.0157921 3.50368 0.00251383C3.72986 -0.0107644 3.95258 0.0628257 4.12633 0.208248C4.30007 0.353671 4.41174 0.559949 4.4385 0.784937L4.44472 0.888944L4.44561 6.87331C4.69368 6.72992 4.90341 6.52869 5.05696 6.28677C5.2105 6.04485 5.30329 5.76941 5.32744 5.48389L5.33366 5.33366V0.888944C5.33366 0.653181 5.42732 0.427075 5.59403 0.260366C5.76074 0.0936563 5.98684 0 6.22261 0Z" fill="black"/>
</svg>
