<svg width="18" height="22" viewBox="0 0 18 22" fill="none" xmlns="http://www.w3.org/2000/svg">
<g id="Group">
<g id="Group_2" filter="url(#filter0_i_958_6406)">
<path id="Vector" d="M9 18C13.9706 18 18 13.9706 18 9C18 4.02944 13.9706 0 9 0C4.02944 0 0 4.02944 0 9C0 13.9706 4.02944 18 9 18Z" fill="url(#paint0_radial_958_6406)"/>
<path id="Vector_2" d="M9 18C13.9706 18 18 13.9706 18 9C18 4.02944 13.9706 0 9 0C4.02944 0 0 4.02944 0 9C0 13.9706 4.02944 18 9 18Z" fill="url(#paint1_radial_958_6406)"/>
<path id="Vector_3" d="M9 18C13.9706 18 18 13.9706 18 9C18 4.02944 13.9706 0 9 0C4.02944 0 0 4.02944 0 9C0 13.9706 4.02944 18 9 18Z" fill="url(#paint2_radial_958_6406)"/>
<path id="Vector_4" d="M9 18C13.9706 18 18 13.9706 18 9C18 4.02944 13.9706 0 9 0C4.02944 0 0 4.02944 0 9C0 13.9706 4.02944 18 9 18Z" fill="url(#paint3_linear_958_6406)"/>
</g>
<g id="Group_3" filter="url(#filter1_f_958_6406)">
<path id="Vector_5" fill-rule="evenodd" clip-rule="evenodd" d="M4.37842 11.307C4.31747 11.0022 4.07595 10.7637 3.77502 10.6853C3.39039 10.5799 3.01706 10.437 2.6604 10.2586C2.58423 10.223 2.51979 10.1665 2.47464 10.0956C2.4295 10.0247 2.40552 9.94233 2.40552 9.85826C2.40552 9.7742 2.4295 9.69187 2.47464 9.62096C2.51979 9.55004 2.58423 9.49348 2.6604 9.4579C3.0171 9.27979 3.39043 9.13714 3.77502 9.03201C4.07595 8.95354 4.31823 8.71507 4.37842 8.41032C4.4706 7.94939 4.62146 7.3818 4.84926 6.82563C4.87654 6.74906 4.92685 6.68281 4.99328 6.63596C5.05971 6.58911 5.139 6.56396 5.22029 6.56396C5.30157 6.56396 5.38087 6.58911 5.4473 6.63596C5.51373 6.68281 5.56403 6.74906 5.59132 6.82563C5.81988 7.3818 5.96997 7.94939 6.06216 8.41032C6.12311 8.71507 6.36538 8.95354 6.66556 9.03277C7.00231 9.12115 7.36496 9.25829 7.77408 9.45714C7.85063 9.49267 7.91543 9.54934 7.96084 9.62048C8.00625 9.69161 8.03037 9.77425 8.03037 9.85864C8.03037 9.94304 8.00625 10.0257 7.96084 10.0968C7.91543 10.1679 7.85063 10.2246 7.77408 10.2602C7.41934 10.4375 7.04806 10.5796 6.66556 10.6845C6.51702 10.7218 6.38184 10.7999 6.27524 10.9098C6.16863 11.0198 6.09484 11.1573 6.06216 11.307C5.97073 11.7679 5.81988 12.3355 5.59132 12.8917C5.56403 12.9682 5.51373 13.0345 5.4473 13.0813C5.38087 13.1282 5.30157 13.1533 5.22029 13.1533C5.139 13.1533 5.05971 13.1282 4.99328 13.0813C4.92685 13.0345 4.87654 12.9682 4.84926 12.8917C4.62069 12.3355 4.4706 11.7679 4.37842 11.307Z" fill="#453852"/>
</g>
<g id="Group_4" filter="url(#filter2_ii_958_6406)">
<path id="Vector_6" fill-rule="evenodd" clip-rule="evenodd" d="M4.37842 11.307C4.31747 11.0022 4.07595 10.7637 3.77502 10.6853C3.39039 10.5799 3.01706 10.437 2.6604 10.2586C2.58423 10.223 2.51979 10.1665 2.47464 10.0956C2.4295 10.0247 2.40552 9.94233 2.40552 9.85826C2.40552 9.7742 2.4295 9.69187 2.47464 9.62096C2.51979 9.55004 2.58423 9.49348 2.6604 9.4579C3.0171 9.27979 3.39043 9.13714 3.77502 9.03201C4.07595 8.95354 4.31823 8.71507 4.37842 8.41032C4.4706 7.94939 4.62146 7.3818 4.84926 6.82563C4.87654 6.74906 4.92685 6.68281 4.99328 6.63596C5.05971 6.58911 5.139 6.56396 5.22029 6.56396C5.30157 6.56396 5.38087 6.58911 5.4473 6.63596C5.51373 6.68281 5.56403 6.74906 5.59132 6.82563C5.81988 7.3818 5.96997 7.94939 6.06216 8.41032C6.12311 8.71507 6.36538 8.95354 6.66556 9.03277C7.00231 9.12115 7.36496 9.25829 7.77408 9.45714C7.85063 9.49267 7.91543 9.54934 7.96084 9.62048C8.00625 9.69161 8.03037 9.77425 8.03037 9.85864C8.03037 9.94304 8.00625 10.0257 7.96084 10.0968C7.91543 10.1679 7.85063 10.2246 7.77408 10.2602C7.41934 10.4375 7.04806 10.5796 6.66556 10.6845C6.51702 10.7218 6.38184 10.7999 6.27524 10.9098C6.16863 11.0198 6.09484 11.1573 6.06216 11.307C5.97073 11.7679 5.81988 12.3355 5.59132 12.8917C5.56403 12.9682 5.51373 13.0345 5.4473 13.0813C5.38087 13.1282 5.30157 13.1533 5.22029 13.1533C5.139 13.1533 5.05971 13.1282 4.99328 13.0813C4.92685 13.0345 4.87654 12.9682 4.84926 12.8917C4.62069 12.3355 4.4706 11.7679 4.37842 11.307Z" fill="url(#paint4_linear_958_6406)"/>
</g>
<g id="Group_5" filter="url(#filter3_ii_958_6406)">
<path id="Vector_7" fill-rule="evenodd" clip-rule="evenodd" d="M7.55479 3.97851C7.5418 3.91838 7.51221 3.86309 7.46939 3.81892C7.42656 3.77475 7.37222 3.74346 7.31252 3.72862C7.15847 3.68647 7.00894 3.62931 6.86606 3.55796C6.83571 3.54356 6.81008 3.52084 6.79213 3.49246C6.77418 3.46407 6.76465 3.43117 6.76465 3.39758C6.76465 3.36399 6.77418 3.3311 6.79213 3.30271C6.81008 3.27432 6.83571 3.25161 6.86606 3.23721C7.03062 3.15721 7.1769 3.10159 7.31252 3.06655C7.37222 3.0517 7.42656 3.02042 7.46939 2.97625C7.51221 2.93208 7.5418 2.87679 7.55479 2.81665C7.59136 2.63228 7.65155 2.40448 7.74297 2.18125C7.75374 2.15033 7.77386 2.12352 7.80055 2.10454C7.82724 2.08557 7.85917 2.07538 7.89192 2.07538C7.92467 2.07538 7.9566 2.08557 7.98329 2.10454C8.00998 2.12352 8.0301 2.15033 8.04087 2.18125C8.13229 2.40448 8.19324 2.63228 8.22981 2.81665C8.25419 2.93855 8.35171 3.03455 8.47132 3.06655C8.62482 3.10852 8.77385 3.16543 8.91626 3.23645C8.94702 3.25067 8.97307 3.2734 8.99133 3.30195C9.00959 3.3305 9.01929 3.36369 9.01929 3.39758C9.01929 3.43147 9.00959 3.46466 8.99133 3.49321C8.97307 3.52177 8.94702 3.5445 8.91626 3.55872C8.77387 3.62979 8.62484 3.6867 8.47132 3.72862C8.4118 3.74367 8.35766 3.77503 8.31499 3.81918C8.27233 3.86333 8.24282 3.91851 8.22981 3.97851C8.18687 4.19576 8.12361 4.40849 8.04087 4.61391C8.02994 4.64457 8.0098 4.67111 7.9832 4.68987C7.9566 4.70863 7.92485 4.7187 7.8923 4.7187C7.85975 4.7187 7.828 4.70863 7.8014 4.68987C7.7748 4.67111 7.75466 4.64457 7.74374 4.61391C7.65231 4.39068 7.59136 4.16288 7.55479 3.97851Z" fill="url(#paint5_linear_958_6406)"/>
</g>
<g id="Group_6" filter="url(#filter4_ii_958_6406)">
<path id="Vector_8" fill-rule="evenodd" clip-rule="evenodd" d="M13.4647 7.2622C13.4461 7.17639 13.4038 7.09752 13.3427 7.0345C13.2815 6.97148 13.204 6.92684 13.1188 6.90564C12.8987 6.8455 12.6851 6.76384 12.4811 6.66184C12.4376 6.64142 12.4009 6.60905 12.3751 6.56851C12.3494 6.52796 12.3357 6.48093 12.3357 6.4329C12.3357 6.38487 12.3494 6.33784 12.3751 6.29729C12.4009 6.25675 12.4376 6.22438 12.4811 6.20396C12.7165 6.08968 12.9253 6.0112 13.1188 5.96016C13.2039 5.93902 13.2814 5.89449 13.3425 5.83162C13.4036 5.76875 13.4459 5.69003 13.4647 5.60436C13.5257 5.29439 13.6157 4.99084 13.7336 4.69774C13.7492 4.65381 13.778 4.61578 13.816 4.58888C13.8541 4.56199 13.8996 4.54755 13.9462 4.54755C13.9928 4.54755 14.0382 4.56199 14.0763 4.58888C14.1144 4.61578 14.1432 4.65381 14.1587 4.69774C14.2883 5.01544 14.3751 5.34076 14.4277 5.60436C14.462 5.77959 14.6006 5.91521 14.7728 5.96016C14.9656 6.0112 15.1736 6.08968 15.4074 6.20396C15.4509 6.22451 15.4876 6.25697 15.5133 6.29757C15.539 6.33817 15.5526 6.38523 15.5526 6.43328C15.5526 6.48133 15.539 6.52839 15.5133 6.56899C15.4876 6.60959 15.4509 6.64205 15.4074 6.6626C15.1736 6.77689 14.9656 6.85536 14.7728 6.9064C14.6878 6.92767 14.6105 6.97225 14.5495 7.03511C14.4886 7.09798 14.4464 7.17663 14.4277 7.2622C14.3666 7.57217 14.2766 7.87571 14.1587 8.16883C14.1432 8.21276 14.1144 8.25079 14.0763 8.27768C14.0382 8.30458 13.9928 8.31902 13.9462 8.31902C13.8996 8.31902 13.8541 8.30458 13.816 8.27768C13.778 8.25079 13.7492 8.21276 13.7336 8.16883C13.6157 7.87572 13.5257 7.57217 13.4647 7.2622Z" fill="url(#paint6_linear_958_6406)"/>
</g>
<g id="Group_7" filter="url(#filter5_ii_958_6406)">
<path id="Vector_9" fill-rule="evenodd" clip-rule="evenodd" d="M13.4647 7.2622C13.4461 7.17639 13.4038 7.09752 13.3427 7.0345C13.2815 6.97148 13.204 6.92684 13.1188 6.90564C12.8987 6.8455 12.6851 6.76384 12.4811 6.66184C12.4376 6.64142 12.4009 6.60905 12.3751 6.56851C12.3494 6.52796 12.3357 6.48093 12.3357 6.4329C12.3357 6.38487 12.3494 6.33784 12.3751 6.29729C12.4009 6.25675 12.4376 6.22438 12.4811 6.20396C12.7165 6.08968 12.9253 6.0112 13.1188 5.96016C13.2039 5.93902 13.2814 5.89449 13.3425 5.83162C13.4036 5.76875 13.4459 5.69003 13.4647 5.60436C13.5257 5.29439 13.6157 4.99084 13.7336 4.69774C13.7492 4.65381 13.778 4.61578 13.816 4.58888C13.8541 4.56199 13.8996 4.54755 13.9462 4.54755C13.9928 4.54755 14.0382 4.56199 14.0763 4.58888C14.1144 4.61578 14.1432 4.65381 14.1587 4.69774C14.2883 5.01544 14.3751 5.34076 14.4277 5.60436C14.462 5.77959 14.6006 5.91521 14.7728 5.96016C14.9656 6.0112 15.1736 6.08968 15.4074 6.20396C15.4509 6.22451 15.4876 6.25697 15.5133 6.29757C15.539 6.33817 15.5526 6.38523 15.5526 6.43328C15.5526 6.48133 15.539 6.52839 15.5133 6.56899C15.4876 6.60959 15.4509 6.64205 15.4074 6.6626C15.1736 6.77689 14.9656 6.85536 14.7728 6.9064C14.6878 6.92767 14.6105 6.97225 14.5495 7.03511C14.4886 7.09798 14.4464 7.17663 14.4277 7.2622C14.3666 7.57217 14.2766 7.87571 14.1587 8.16883C14.1432 8.21276 14.1144 8.25079 14.0763 8.27768C14.0382 8.30458 13.9928 8.31902 13.9462 8.31902C13.8996 8.31902 13.8541 8.30458 13.816 8.27768C13.778 8.25079 13.7492 8.21276 13.7336 8.16883C13.6157 7.87572 13.5257 7.57217 13.4647 7.2622Z" fill="url(#paint7_linear_958_6406)"/>
</g>
<path id="Vector_10" d="M3.55108 16.1022C3.51185 16.1022 3.47359 16.1144 3.44155 16.1371C3.4095 16.1597 3.38523 16.1917 3.37204 16.2286L2.23152 19.4346C2.16025 19.6352 2.13802 19.8499 2.1667 20.0608C2.19539 20.2717 2.27414 20.4726 2.39639 20.6469C2.51864 20.8211 2.68082 20.9635 2.86938 21.0623C3.05794 21.161 3.26739 21.2131 3.48023 21.2143L8.90476 21.2448L9.09523 21.2456L14.5198 21.2143C14.7327 21.2132 14.9422 21.1612 15.1309 21.0625C15.3195 20.9638 15.4818 20.8214 15.6041 20.6472C15.7265 20.4729 15.8053 20.2719 15.834 20.0609C15.8627 19.85 15.8405 19.6352 15.7692 19.4346L14.6279 16.2294C14.6148 16.1925 14.5905 16.1605 14.5584 16.1378C14.5264 16.1152 14.4881 16.103 14.4489 16.1029L3.55108 16.1022Z" fill="url(#paint8_linear_958_6406)"/>
<path id="Vector_11" d="M3.55108 16.1022C3.51185 16.1022 3.47359 16.1144 3.44155 16.1371C3.4095 16.1597 3.38523 16.1917 3.37204 16.2286L2.23152 19.4346C2.16025 19.6352 2.13802 19.8499 2.1667 20.0608C2.19539 20.2717 2.27414 20.4726 2.39639 20.6469C2.51864 20.8211 2.68082 20.9635 2.86938 21.0623C3.05794 21.161 3.26739 21.2131 3.48023 21.2143L8.90476 21.2448L9.09523 21.2456L14.5198 21.2143C14.7327 21.2132 14.9422 21.1612 15.1309 21.0625C15.3195 20.9638 15.4818 20.8214 15.6041 20.6472C15.7265 20.4729 15.8053 20.2719 15.834 20.0609C15.8627 19.85 15.8405 19.6352 15.7692 19.4346L14.6279 16.2294C14.6148 16.1925 14.5905 16.1605 14.5584 16.1378C14.5264 16.1152 14.4881 16.103 14.4489 16.1029L3.55108 16.1022Z" fill="url(#paint9_linear_958_6406)"/>
<path id="Vector_12" d="M3.55108 16.1022C3.51185 16.1022 3.47359 16.1144 3.44155 16.1371C3.4095 16.1597 3.38523 16.1917 3.37204 16.2286L2.23152 19.4346C2.16025 19.6352 2.13802 19.8499 2.1667 20.0608C2.19539 20.2717 2.27414 20.4726 2.39639 20.6469C2.51864 20.8211 2.68082 20.9635 2.86938 21.0623C3.05794 21.161 3.26739 21.2131 3.48023 21.2143L8.90476 21.2448L9.09523 21.2456L14.5198 21.2143C14.7327 21.2132 14.9422 21.1612 15.1309 21.0625C15.3195 20.9638 15.4818 20.8214 15.6041 20.6472C15.7265 20.4729 15.8053 20.2719 15.834 20.0609C15.8627 19.85 15.8405 19.6352 15.7692 19.4346L14.6279 16.2294C14.6148 16.1925 14.5905 16.1605 14.5584 16.1378C14.5264 16.1152 14.4881 16.103 14.4489 16.1029L3.55108 16.1022Z" fill="url(#paint10_linear_958_6406)"/>
<path id="Vector_13" d="M3.55108 16.1022C3.51185 16.1022 3.47359 16.1144 3.44155 16.1371C3.4095 16.1597 3.38523 16.1917 3.37204 16.2286L2.23152 19.4346C2.16025 19.6352 2.13802 19.8499 2.1667 20.0608C2.19539 20.2717 2.27414 20.4726 2.39639 20.6469C2.51864 20.8211 2.68082 20.9635 2.86938 21.0623C3.05794 21.161 3.26739 21.2131 3.48023 21.2143L8.90476 21.2448L9.09523 21.2456L14.5198 21.2143C14.7327 21.2132 14.9422 21.1612 15.1309 21.0625C15.3195 20.9638 15.4818 20.8214 15.6041 20.6472C15.7265 20.4729 15.8053 20.2719 15.834 20.0609C15.8627 19.85 15.8405 19.6352 15.7692 19.4346L14.6279 16.2294C14.6148 16.1925 14.5905 16.1605 14.5584 16.1378C14.5264 16.1152 14.4881 16.103 14.4489 16.1029L3.55108 16.1022Z" fill="url(#paint11_radial_958_6406)"/>
<path id="Vector_14" d="M3.55108 16.1022C3.51185 16.1022 3.47359 16.1144 3.44155 16.1371C3.4095 16.1597 3.38523 16.1917 3.37204 16.2286L2.23152 19.4346C2.16025 19.6352 2.13802 19.8499 2.1667 20.0608C2.19539 20.2717 2.27414 20.4726 2.39639 20.6469C2.51864 20.8211 2.68082 20.9635 2.86938 21.0623C3.05794 21.161 3.26739 21.2131 3.48023 21.2143L8.90476 21.2448L9.09523 21.2456L14.5198 21.2143C14.7327 21.2132 14.9422 21.1612 15.1309 21.0625C15.3195 20.9638 15.4818 20.8214 15.6041 20.6472C15.7265 20.4729 15.8053 20.2719 15.834 20.0609C15.8627 19.85 15.8405 19.6352 15.7692 19.4346L14.6279 16.2294C14.6148 16.1925 14.5905 16.1605 14.5584 16.1378C14.5264 16.1152 14.4881 16.103 14.4489 16.1029L3.55108 16.1022Z" fill="url(#paint12_linear_958_6406)"/>
</g>
<defs>
<filter id="filter0_i_958_6406" x="0" y="0" width="18.25" height="18" filterUnits="userSpaceOnUse" color-interpolation-filters="sRGB">
<feFlood flood-opacity="0" result="BackgroundImageFix"/>
<feBlend mode="normal" in="SourceGraphic" in2="BackgroundImageFix" result="shape"/>
<feColorMatrix in="SourceAlpha" type="matrix" values="0 0 0 0 0 0 0 0 0 0 0 0 0 0 0 0 0 0 127 0" result="hardAlpha"/>
<feOffset dx="0.25"/>
<feGaussianBlur stdDeviation="1"/>
<feComposite in2="hardAlpha" operator="arithmetic" k2="-1" k3="1"/>
<feColorMatrix type="matrix" values="0 0 0 0 0.368627 0 0 0 0 0.341176 0 0 0 0 0.411765 0 0 0 1 0"/>
<feBlend mode="normal" in2="shape" result="effect1_innerShadow_958_6406"/>
</filter>
<filter id="filter1_f_958_6406" x="1.90552" y="6.06396" width="6.62476" height="7.58936" filterUnits="userSpaceOnUse" color-interpolation-filters="sRGB">
<feFlood flood-opacity="0" result="BackgroundImageFix"/>
<feBlend mode="normal" in="SourceGraphic" in2="BackgroundImageFix" result="shape"/>
<feGaussianBlur stdDeviation="0.25" result="effect1_foregroundBlur_958_6406"/>
</filter>
<filter id="filter2_ii_958_6406" x="2.25552" y="6.41396" width="5.92476" height="6.88936" filterUnits="userSpaceOnUse" color-interpolation-filters="sRGB">
<feFlood flood-opacity="0" result="BackgroundImageFix"/>
<feBlend mode="normal" in="SourceGraphic" in2="BackgroundImageFix" result="shape"/>
<feColorMatrix in="SourceAlpha" type="matrix" values="0 0 0 0 0 0 0 0 0 0 0 0 0 0 0 0 0 0 127 0" result="hardAlpha"/>
<feOffset dx="0.15" dy="-0.15"/>
<feGaussianBlur stdDeviation="0.375"/>
<feComposite in2="hardAlpha" operator="arithmetic" k2="-1" k3="1"/>
<feColorMatrix type="matrix" values="0 0 0 0 0.94902 0 0 0 0 0.513726 0 0 0 0 0.392157 0 0 0 1 0"/>
<feBlend mode="normal" in2="shape" result="effect1_innerShadow_958_6406"/>
<feColorMatrix in="SourceAlpha" type="matrix" values="0 0 0 0 0 0 0 0 0 0 0 0 0 0 0 0 0 0 127 0" result="hardAlpha"/>
<feOffset dx="-0.15" dy="0.15"/>
<feGaussianBlur stdDeviation="0.3"/>
<feComposite in2="hardAlpha" operator="arithmetic" k2="-1" k3="1"/>
<feColorMatrix type="matrix" values="0 0 0 0 1 0 0 0 0 0.823529 0 0 0 0 0.407843 0 0 0 1 0"/>
<feBlend mode="normal" in2="effect1_innerShadow_958_6406" result="effect2_innerShadow_958_6406"/>
</filter>
<filter id="filter3_ii_958_6406" x="6.66465" y="1.97538" width="2.45464" height="2.84331" filterUnits="userSpaceOnUse" color-interpolation-filters="sRGB">
<feFlood flood-opacity="0" result="BackgroundImageFix"/>
<feBlend mode="normal" in="SourceGraphic" in2="BackgroundImageFix" result="shape"/>
<feColorMatrix in="SourceAlpha" type="matrix" values="0 0 0 0 0 0 0 0 0 0 0 0 0 0 0 0 0 0 127 0" result="hardAlpha"/>
<feOffset dx="0.1" dy="-0.1"/>
<feGaussianBlur stdDeviation="0.15"/>
<feComposite in2="hardAlpha" operator="arithmetic" k2="-1" k3="1"/>
<feColorMatrix type="matrix" values="0 0 0 0 0.952941 0 0 0 0 0.694118 0 0 0 0 0.396078 0 0 0 1 0"/>
<feBlend mode="normal" in2="shape" result="effect1_innerShadow_958_6406"/>
<feColorMatrix in="SourceAlpha" type="matrix" values="0 0 0 0 0 0 0 0 0 0 0 0 0 0 0 0 0 0 127 0" result="hardAlpha"/>
<feOffset dx="-0.1" dy="0.1"/>
<feGaussianBlur stdDeviation="0.15"/>
<feComposite in2="hardAlpha" operator="arithmetic" k2="-1" k3="1"/>
<feColorMatrix type="matrix" values="0 0 0 0 1 0 0 0 0 0.823529 0 0 0 0 0.407843 0 0 0 1 0"/>
<feBlend mode="normal" in2="effect1_innerShadow_958_6406" result="effect2_innerShadow_958_6406"/>
</filter>
<filter id="filter4_ii_958_6406" x="12.1857" y="4.39755" width="3.51704" height="4.07148" filterUnits="userSpaceOnUse" color-interpolation-filters="sRGB">
<feFlood flood-opacity="0" result="BackgroundImageFix"/>
<feBlend mode="normal" in="SourceGraphic" in2="BackgroundImageFix" result="shape"/>
<feColorMatrix in="SourceAlpha" type="matrix" values="0 0 0 0 0 0 0 0 0 0 0 0 0 0 0 0 0 0 127 0" result="hardAlpha"/>
<feOffset dx="0.15" dy="-0.15"/>
<feGaussianBlur stdDeviation="0.375"/>
<feComposite in2="hardAlpha" operator="arithmetic" k2="-1" k3="1"/>
<feColorMatrix type="matrix" values="0 0 0 0 0.94902 0 0 0 0 0.513726 0 0 0 0 0.392157 0 0 0 1 0"/>
<feBlend mode="normal" in2="shape" result="effect1_innerShadow_958_6406"/>
<feColorMatrix in="SourceAlpha" type="matrix" values="0 0 0 0 0 0 0 0 0 0 0 0 0 0 0 0 0 0 127 0" result="hardAlpha"/>
<feOffset dx="-0.15" dy="0.15"/>
<feGaussianBlur stdDeviation="0.3"/>
<feComposite in2="hardAlpha" operator="arithmetic" k2="-1" k3="1"/>
<feColorMatrix type="matrix" values="0 0 0 0 1 0 0 0 0 0.823529 0 0 0 0 0.407843 0 0 0 1 0"/>
<feBlend mode="normal" in2="effect1_innerShadow_958_6406" result="effect2_innerShadow_958_6406"/>
</filter>
<filter id="filter5_ii_958_6406" x="12.1857" y="4.44755" width="3.46704" height="4.02148" filterUnits="userSpaceOnUse" color-interpolation-filters="sRGB">
<feFlood flood-opacity="0" result="BackgroundImageFix"/>
<feBlend mode="normal" in="SourceGraphic" in2="BackgroundImageFix" result="shape"/>
<feColorMatrix in="SourceAlpha" type="matrix" values="0 0 0 0 0 0 0 0 0 0 0 0 0 0 0 0 0 0 127 0" result="hardAlpha"/>
<feOffset dx="-0.15" dy="0.15"/>
<feGaussianBlur stdDeviation="0.25"/>
<feComposite in2="hardAlpha" operator="arithmetic" k2="-1" k3="1"/>
<feColorMatrix type="matrix" values="0 0 0 0 1 0 0 0 0 0.886275 0 0 0 0 0.513726 0 0 0 1 0"/>
<feBlend mode="normal" in2="shape" result="effect1_innerShadow_958_6406"/>
<feColorMatrix in="SourceAlpha" type="matrix" values="0 0 0 0 0 0 0 0 0 0 0 0 0 0 0 0 0 0 127 0" result="hardAlpha"/>
<feOffset dx="0.1" dy="-0.1"/>
<feGaussianBlur stdDeviation="0.15"/>
<feComposite in2="hardAlpha" operator="arithmetic" k2="-1" k3="1"/>
<feColorMatrix type="matrix" values="0 0 0 0 0.988235 0 0 0 0 0.619608 0 0 0 0 0.447059 0 0 0 1 0"/>
<feBlend mode="normal" in2="effect1_innerShadow_958_6406" result="effect2_innerShadow_958_6406"/>
</filter>
<radialGradient id="paint0_radial_958_6406" cx="0" cy="0" r="1" gradientUnits="userSpaceOnUse" gradientTransform="translate(13.8092 6.37748) rotate(126.32) scale(11.3459)">
<stop stop-color="#7B7486"/>
<stop offset="0.788" stop-color="#35303C"/>
</radialGradient>
<radialGradient id="paint1_radial_958_6406" cx="0" cy="0" r="1" gradientUnits="userSpaceOnUse" gradientTransform="translate(7.02902 15.337) rotate(-55.364) scale(11.1844 13.8224)">
<stop stop-color="#5C4077"/>
<stop offset="1" stop-color="#5C4077" stop-opacity="0"/>
</radialGradient>
<radialGradient id="paint2_radial_958_6406" cx="0" cy="0" r="1" gradientUnits="userSpaceOnUse" gradientTransform="translate(3.35757 16.6027) rotate(-56.3099) scale(1.37349 2.04994)">
<stop stop-color="#66547A"/>
<stop offset="1" stop-color="#66547A" stop-opacity="0"/>
</radialGradient>
<linearGradient id="paint3_linear_958_6406" x1="9" y1="16.1913" x2="9" y2="15.7692" gradientUnits="userSpaceOnUse">
<stop stop-color="#392E48"/>
<stop offset="1" stop-color="#392E48" stop-opacity="0"/>
</linearGradient>
<linearGradient id="paint4_linear_958_6406" x1="7.23925" y1="8.30823" x2="3.96167" y2="11.5881" gradientUnits="userSpaceOnUse">
<stop stop-color="#FFC154"/>
<stop offset="1" stop-color="#FFA271"/>
</linearGradient>
<linearGradient id="paint5_linear_958_6406" x1="8.5818" y1="2.85703" x2="7.43975" y2="3.97699" gradientUnits="userSpaceOnUse">
<stop offset="0.042" stop-color="#F2C954"/>
<stop offset="1" stop-color="#F7B669"/>
</linearGradient>
<linearGradient id="paint6_linear_958_6406" x1="14.9298" y1="5.66227" x2="13.3001" y2="7.26068" gradientUnits="userSpaceOnUse">
<stop stop-color="#FFC154"/>
<stop offset="1" stop-color="#FFA271"/>
</linearGradient>
<linearGradient id="paint7_linear_958_6406" x1="14.9298" y1="5.66227" x2="13.3001" y2="7.26068" gradientUnits="userSpaceOnUse">
<stop offset="0.042" stop-color="#FEC953"/>
<stop offset="1" stop-color="#EEA654"/>
</linearGradient>
<linearGradient id="paint8_linear_958_6406" x1="3.00025" y1="19.7927" x2="12.9046" y2="19.7927" gradientUnits="userSpaceOnUse">
<stop stop-color="#B9A6CD"/>
<stop offset="1" stop-color="#F1EAF6"/>
</linearGradient>
<linearGradient id="paint9_linear_958_6406" x1="15.5346" y1="17.7585" x2="14.2638" y2="18.1828" gradientUnits="userSpaceOnUse">
<stop stop-color="#D9D7DF"/>
<stop offset="1" stop-color="#D9D7DF" stop-opacity="0"/>
</linearGradient>
<linearGradient id="paint10_linear_958_6406" x1="9.63235" y1="21.2448" x2="9.63235" y2="19.7569" gradientUnits="userSpaceOnUse">
<stop stop-color="#CF8EEB"/>
<stop offset="1" stop-color="#CF8EEB" stop-opacity="0"/>
</linearGradient>
<radialGradient id="paint11_radial_958_6406" cx="0" cy="0" r="1" gradientUnits="userSpaceOnUse" gradientTransform="translate(9.93481 23.1472) rotate(-90) scale(4.47313 11.2001)">
<stop stop-color="#CF8EEB"/>
<stop offset="1" stop-color="#CF8EEB" stop-opacity="0"/>
</radialGradient>
<linearGradient id="paint12_linear_958_6406" x1="1.91306" y1="18.6735" x2="5.93879" y2="19.6959" gradientUnits="userSpaceOnUse">
<stop stop-color="#8B8496"/>
<stop offset="1" stop-color="#8B8496" stop-opacity="0"/>
</linearGradient>
</defs>
</svg>
