<svg width="18" height="21" viewBox="0 0 18 21" fill="none" xmlns="http://www.w3.org/2000/svg">
<path id="Vector" d="M18 9.33333C18 12.1209 16.8218 14.623 14.9535 16.3333H15L15.6938 19.5844C15.9353 20.2821 15.3683 21 14.5598 21H3.4425C2.63325 21 2.05875 20.2821 2.3085 19.5844L3 16.3333H3.04725C2.08847 15.4584 1.3207 14.3815 0.79522 13.1743C0.269738 11.9672 -0.00136795 10.6578 5.1902e-06 9.33333C5.1902e-06 4.179 4.02975 0 9 0C13.9703 0 18 4.179 18 9.33333ZM7.45875 2.33567L7.17375 1.638C7.16193 1.61343 7.14373 1.59276 7.12121 1.57832C7.09869 1.56387 7.07273 1.55622 7.04625 1.55622C7.01977 1.55622 6.99382 1.56387 6.97129 1.57832C6.94877 1.59276 6.93058 1.61343 6.91875 1.638L6.63375 2.33567C6.61589 2.38124 6.58944 2.42267 6.55596 2.45752C6.52248 2.49238 6.48263 2.51996 6.43875 2.53867L6.07875 2.71133C6.05492 2.72377 6.0349 2.74283 6.0209 2.76638C6.00691 2.78994 5.9995 2.81706 5.9995 2.84472C5.9995 2.87239 6.00691 2.89951 6.0209 2.92306C6.0349 2.94661 6.05492 2.96567 6.07875 2.97811L6.43875 3.15C6.52875 3.18889 6.59625 3.26822 6.63375 3.35378L6.91875 4.05144C6.93058 4.07601 6.94877 4.09668 6.97129 4.11113C6.99382 4.12557 7.01977 4.13323 7.04625 4.13323C7.07273 4.13323 7.09869 4.12557 7.12121 4.11113C7.14373 4.09668 7.16193 4.07601 7.17375 4.05144L7.45875 3.35378C7.47668 3.30815 7.50314 3.26665 7.53661 3.23167C7.57008 3.1967 7.60989 3.16894 7.65375 3.15L8.01375 2.97811C8.03758 2.96567 8.05761 2.94661 8.0716 2.92306C8.0856 2.89951 8.09301 2.87239 8.09301 2.84472C8.09301 2.81706 8.0856 2.78994 8.0716 2.76638C8.05761 2.74283 8.03758 2.72377 8.01375 2.71133L7.65375 2.53867C7.56663 2.49856 7.49709 2.42617 7.45875 2.33567ZM14.82 5.77967L14.415 4.78411C14.3979 4.74874 14.3717 4.719 14.3392 4.69821C14.3068 4.67743 14.2694 4.66642 14.2313 4.66642C14.1931 4.66642 14.1557 4.67743 14.1233 4.69821C14.0908 4.719 14.0646 4.74874 14.0475 4.78411L13.6425 5.77967C13.5901 5.90757 13.4939 6.01089 13.3725 6.06978L12.8625 6.31244C12.7125 6.39022 12.7125 6.61811 12.8625 6.69667L13.3725 6.93933C13.4925 6.99378 13.59 7.10344 13.6425 7.22944L14.0475 8.225C14.1225 8.38056 14.34 8.38056 14.415 8.225L14.82 7.22944C14.8721 7.10133 14.9684 6.99792 15.09 6.93933L15.6 6.69667C15.75 6.61811 15.75 6.391 15.6 6.31244L15.09 6.06978C14.9686 6.01089 14.8724 5.90757 14.82 5.77967ZM6.98775 9.19489C6.73608 9.06962 6.54018 8.84921 6.44025 8.57889L5.62125 6.47344C5.58975 6.39851 5.53784 6.33473 5.4719 6.28995C5.40595 6.24516 5.32883 6.2213 5.25 6.2213C5.17117 6.2213 5.09406 6.24516 5.02811 6.28995C4.96217 6.33473 4.91026 6.39851 4.87875 6.47344L4.0605 8.57889C3.9584 8.8478 3.76315 9.06748 3.513 9.19489L2.47875 9.70433C2.1735 9.87156 2.1735 10.3499 2.47875 10.5179L3.51225 11.0273C3.762 11.1487 3.95625 11.3696 4.05975 11.6433L4.87875 13.7488C4.91026 13.8237 4.96217 13.8875 5.02811 13.9323C5.09406 13.9771 5.17117 14.0009 5.25 14.0009C5.32883 14.0009 5.40595 13.9771 5.4719 13.9323C5.53784 13.8875 5.58975 13.8237 5.62125 13.7488L6.4395 11.6433C6.54375 11.3696 6.74475 11.1487 6.987 11.0273L8.02125 10.5179C8.3265 10.3507 8.3265 9.87233 8.02125 9.70433L6.98775 9.19489ZM3.012 19.8551C2.991 19.915 2.99475 19.9796 3.05625 20.0573C3.12225 20.139 3.2535 20.2222 3.44325 20.2222H14.5598C14.748 20.2222 14.8778 20.1398 14.9423 20.0581C15.0045 19.9803 15.0098 19.9119 14.988 19.8481L14.9715 19.8014L14.3978 17.1111H3.603L3.03 19.8046L3.012 19.8551Z" fill="black"/>
</svg>
