<svg width="18" height="16" viewBox="0 0 18 16" fill="none" xmlns="http://www.w3.org/2000/svg">
<g id="Group">
<path id="Vector" d="M0 5.55905C0 5.30932 0 5.05959 0 4.80985C0.0454057 4.52834 0.0681088 4.23774 0.140758 3.96077C0.690167 1.85394 2.03872 0.55534 4.1637 0.110364C5.38512 -0.143908 6.56566 0.0649586 7.66448 0.655233C8.02773 0.850477 8.36373 1.09113 8.69519 1.30453C9.07206 1.07297 9.43531 0.800531 9.83942 0.600746C11.2924 -0.121205 12.7908 -0.207476 14.2892 0.423663C16.6957 1.43167 17.8354 3.96531 17.2451 6.46716C16.9817 7.5796 16.4369 8.54674 15.7603 9.45486C14.9748 10.5083 14.0667 11.4482 13.0995 12.3336C11.8645 13.4642 10.6068 14.5766 9.35358 15.6845C9.20374 15.8162 9.00849 15.9297 8.81779 15.9797C8.54989 16.0523 8.31378 15.9206 8.10946 15.739C6.99702 14.7582 5.87096 13.7911 4.76306 12.8013C3.70511 11.8568 2.66077 10.9033 1.77536 9.79086C1.00801 8.82826 0.40411 7.78393 0.154379 6.56252C0.08173 6.23105 0.0499463 5.89505 0 5.55905ZM13.7897 4.12423C13.8941 4.12423 13.9713 4.12423 14.0485 4.12423C14.2801 4.12423 14.5117 4.13331 14.7432 4.11969C14.9703 4.10607 15.1246 3.92898 15.1201 3.72012C15.1156 3.51579 14.9612 3.35687 14.7432 3.33417C14.657 3.32509 14.5752 3.32963 14.489 3.32963C14.2574 3.32963 14.0304 3.32963 13.7852 3.32963C13.7852 3.2252 13.7852 3.14801 13.7852 3.07082C13.7852 2.83925 13.7943 2.60768 13.7806 2.37611C13.767 2.15816 13.599 2.00378 13.3947 1.99924C13.1813 1.9947 13.0133 2.14908 12.9906 2.37611C12.9815 2.46238 12.986 2.54411 12.986 2.63038C12.986 2.86195 12.986 3.08898 12.986 3.33417C12.8816 3.33417 12.8044 3.33417 12.7272 3.33417C12.4956 3.33417 12.2641 3.32509 12.0325 3.33871C11.8146 3.35233 11.6602 3.52033 11.6556 3.72466C11.6511 3.93352 11.8055 4.10607 12.0325 4.12877C12.1188 4.13785 12.2005 4.13331 12.2868 4.13331C12.5184 4.13331 12.7454 4.13331 12.9906 4.13331C12.9906 4.45115 12.986 4.74629 12.9906 5.03688C12.9951 5.28207 13.145 5.45007 13.3629 5.4637C13.599 5.47732 13.7806 5.30024 13.7852 5.03688C13.7943 4.73721 13.7897 4.44207 13.7897 4.12423Z" fill="black"/>
</g>
</svg>
