<svg width="15" height="16" viewBox="0 0 15 16" fill="none" xmlns="http://www.w3.org/2000/svg">
<g id="Group">
<path id="Vector" d="M8.07737 10.0943C8.07737 10.1728 8.07737 10.2339 8.07737 10.2993C8.07737 11.9477 8.07737 13.5962 8.07737 15.2446C8.07737 15.3187 8.07737 15.3972 8.06865 15.4714C8.02068 15.7941 7.73721 16.0165 7.40578 15.999C7.10051 15.9816 6.84758 15.7287 6.82578 15.4147C6.82141 15.3449 6.82141 15.2751 6.82141 15.201C6.82141 12.8679 6.82141 10.5304 6.82141 8.19731C6.82141 8.14934 6.82141 8.10136 6.82141 8.03595C6.52923 8.02287 6.24141 8.01415 5.95795 7.99234C4.96365 7.9182 3.99988 7.7176 3.0928 7.28587C1.70602 6.623 0.851276 5.51532 0.397737 4.07185C0.0445006 2.94236 -0.0601626 1.78235 0.0314173 0.604894C0.0532221 0.308349 0.275631 0.0554142 0.567814 0.0336095C2.15084 -0.0841362 3.68589 0.0903016 5.11628 0.831663C6.43329 1.51197 7.20954 2.62837 7.63691 4.01952C7.68924 4.18523 7.73285 4.35531 7.78082 4.53411C7.80263 4.51666 7.82879 4.50358 7.84188 4.48178C8.57015 3.35665 9.62987 2.69379 10.8858 2.31439C11.9237 2.0004 12.9834 1.90446 14.0649 1.95679C14.3877 1.97423 14.6275 2.18792 14.6711 2.51499C14.7627 3.20838 14.7409 3.90613 14.6624 4.59952C14.5665 5.43682 14.3659 6.24796 13.9952 7.01113C13.3367 8.36738 12.2377 9.19596 10.8335 9.65386C10.0005 9.9286 9.14144 10.0463 8.26489 10.0812C8.2082 10.09 8.1515 10.0943 8.07737 10.0943ZM13.4501 3.2171C13.4283 3.21274 13.4021 3.20838 13.3759 3.20838C12.5299 3.23018 11.697 3.34793 10.8989 3.64011C9.98746 3.97591 9.24174 4.51666 8.77076 5.38885C8.27361 6.30465 8.10789 7.29895 8.07737 8.32813C8.07301 8.48949 8.07737 8.65084 8.07737 8.82092C8.1515 8.82092 8.19947 8.82092 8.24744 8.82092C8.93647 8.80784 9.61242 8.70754 10.2709 8.51565C11.553 8.14497 12.5212 7.40797 13.0183 6.13022C13.2669 5.4848 13.4064 4.81757 13.4501 4.12854C13.4675 3.832 13.4501 3.53109 13.4501 3.2171ZM1.26993 1.25467C1.26557 1.30265 1.25684 1.32881 1.25684 1.35498C1.26557 2.21408 1.37023 3.05575 1.65369 3.87124C2.04618 5.01817 2.78754 5.83803 3.91702 6.28721C4.63222 6.57067 5.37358 6.71458 6.14111 6.75383C6.34607 6.76255 6.54667 6.75383 6.756 6.75383C6.76036 6.71458 6.76472 6.68406 6.76472 6.65789C6.76036 5.92089 6.68186 5.19261 6.4769 4.48178C6.22396 3.60523 5.80967 2.82898 5.06395 2.27078C4.43598 1.79979 3.71642 1.55558 2.95761 1.40295C2.40377 1.29828 1.84557 1.25467 1.26993 1.25467Z" fill="black"/>
</g>
</svg>
