<svg width="14" height="16" viewBox="0 0 14 16" fill="none" xmlns="http://www.w3.org/2000/svg">
<path d="M7 0C5.69579 0 4.54632 0.913171 4.17789 2.24C3.78737 2.05268 3.37474 1.95122 2.94737 1.95122C2.16568 1.95122 1.416 2.28014 0.863264 2.86562C0.310525 3.4511 0 4.24518 0 5.07317C0.0017458 5.76455 0.219575 6.43587 0.619477 6.9823C1.01938 7.52873 1.57885 7.91952 2.21053 8.09366V13.6585H11.7895V8.09366C13.0863 7.73463 14 6.49366 14 5.07317C14 4.24518 13.6895 3.4511 13.1367 2.86562C12.584 2.28014 11.8343 1.95122 11.0526 1.95122C10.6253 1.95122 10.2126 2.05268 9.82211 2.24C9.45368 0.913171 8.30421 0 7 0ZM6.63158 7.02439H7.36842V12.4878H6.63158V7.02439ZM4.42105 8.58537H5.15789V12.4878H4.42105V8.58537ZM8.8421 8.58537H9.57895V12.4878H8.8421V8.58537ZM2.21053 14.439V15.2195C2.21053 15.4265 2.28816 15.625 2.42634 15.7714C2.56453 15.9178 2.75195 16 2.94737 16H11.0526C11.2481 16 11.4355 15.9178 11.5737 15.7714C11.7118 15.625 11.7895 15.4265 11.7895 15.2195V14.439H2.21053Z" fill="black"/>
</svg>
