<svg width="17" height="16" viewBox="0 0 17 16" fill="none" xmlns="http://www.w3.org/2000/svg">
<path fill-rule="evenodd" clip-rule="evenodd" d="M5.9177 14.5591C3.41615 12.4367 0 8.93089 0 5.61609C0 0.0782561 4.675 -1.98949 8.5 2.28718C12.325 -1.98949 17 0.0782557 17 5.61515C17 8.93089 13.583 12.4367 11.0823 14.5591C9.9501 15.5191 9.384 16 8.5 16C7.616 16 7.0499 15.52 5.9177 14.5591ZM12.325 3.05894C12.4941 3.05894 12.6562 3.1333 12.7758 3.26568C12.8953 3.39806 12.9625 3.5776 12.9625 3.76481V4.94127H14.025C14.1941 4.94127 14.3562 5.01564 14.4758 5.14802C14.5953 5.2804 14.6625 5.45994 14.6625 5.64715C14.6625 5.83436 14.5953 6.0139 14.4758 6.14628C14.3562 6.27866 14.1941 6.35302 14.025 6.35302H12.9625V7.52949C12.9625 7.7167 12.8953 7.89624 12.7758 8.02861C12.6562 8.16099 12.4941 8.23536 12.325 8.23536C12.1559 8.23536 11.9938 8.16099 11.8742 8.02861C11.7547 7.89624 11.6875 7.7167 11.6875 7.52949V6.35302H10.625C10.4559 6.35302 10.2938 6.27866 10.1742 6.14628C10.0547 6.0139 9.9875 5.83436 9.9875 5.64715C9.9875 5.45994 10.0547 5.2804 10.1742 5.14802C10.2938 5.01564 10.4559 4.94127 10.625 4.94127H11.6875V3.76481C11.6875 3.5776 11.7547 3.39806 11.8742 3.26568C11.9938 3.1333 12.1559 3.05894 12.325 3.05894Z" fill="black"/>
</svg>
