<svg width="17" height="16" viewBox="0 0 17 16" fill="none" xmlns="http://www.w3.org/2000/svg">
<path d="M8.60742 0C10.7292 0 12.764 0.842855 14.2643 2.34315C15.7646 3.84344 16.6074 5.87827 16.6074 8C16.6074 10.1217 15.7646 12.1566 14.2643 13.6569C12.764 15.1571 10.7292 16 8.60742 16C6.48569 16 4.45086 15.1571 2.95057 13.6569C1.45028 12.1566 0.607422 10.1217 0.607422 8C0.607422 5.87827 1.45028 3.84344 2.95057 2.34315C4.45086 0.842855 6.48569 0 8.60742 0ZM7.17481 1.38215L8.60742 2.33846L10.04 1.38338C9.09581 1.17977 8.11903 1.17977 7.17481 1.38338V1.38215ZM5.7065 1.88185C4.80849 2.3092 4.01525 2.92849 3.38281 3.696L4.17911 6.28554L5.41727 6.69785L7.99204 4.74092V3.40677L5.7065 1.88185ZM2.51265 5.05231C2.17242 5.75353 1.95669 6.50857 1.87511 7.28369L2.96434 6.52185L2.51265 5.05231ZM1.8825 8.78154C2.00558 9.84615 2.37481 10.8369 2.93234 11.6923H5.27573L6.05727 10.9108L5.04435 7.87077L3.78404 7.45108L1.8825 8.78031V8.78154ZM3.9625 12.9231C4.4585 13.3932 5.02711 13.7883 5.64865 14.0898L5.13296 12.9231H3.96373H3.9625ZM7.23635 14.6302C8.14092 14.8163 9.07393 14.8163 9.9785 14.6302L10.9508 12.4443L10.1988 11.6923H7.01604L6.26527 12.4431L7.23635 14.6302ZM11.565 14.0898C12.1838 13.7888 12.7531 13.3954 13.2536 12.9231H12.0843L11.565 14.0898ZM14.2813 11.6923C14.8228 10.8628 15.1871 9.90769 15.32 8.88L13.4197 7.45477L12.1705 7.87077L11.1576 10.9108L11.9391 11.6923H14.2813ZM15.3471 7.36246C15.2722 6.55322 15.0512 5.76426 14.6948 5.03385L14.2431 6.53538L15.3471 7.36246ZM13.816 3.67631C13.1861 2.91779 12.3987 2.30546 11.5083 1.88185L9.22281 3.40677V4.74092L11.7976 6.69785L13.0333 6.28677L13.816 3.67631ZM6.25419 7.60615L7.20435 10.4615H10.0105L10.9607 7.60739L8.60742 5.81908L6.25419 7.60862V7.60615Z" fill="black"/>
</svg>
