<svg width="17" height="16" viewBox="0 0 17 16" fill="none" xmlns="http://www.w3.org/2000/svg">
<path fill-rule="evenodd" clip-rule="evenodd" d="M16.5846 1.71429C16.5997 1.52418 16.6073 1.33356 16.6074 1.14286V0H14.6074C13.1237 0.000308859 11.68 0.481627 10.493 1.37177C9.3059 2.26192 8.4394 3.51291 8.02342 4.93714C7.383 4.11104 6.5619 3.44256 5.62309 2.98296C4.68428 2.52336 3.65269 2.28485 2.60742 2.28571H0.607422V3.42857C0.607422 5.2472 1.32987 6.99134 2.61583 8.2773C3.9018 9.56327 5.64594 10.2857 7.46457 10.2857H7.75028V15.1429C7.75028 15.3702 7.84059 15.5882 8.00133 15.7489C8.16208 15.9097 8.38009 16 8.60742 16C8.83475 16 9.05277 15.9097 9.21351 15.7489C9.37426 15.5882 9.46457 15.3702 9.46457 15.1429V8H9.75028C11.4702 8.00025 13.1273 7.35419 14.3932 6.18991C15.6591 5.02564 16.4412 3.42818 16.5846 1.71429ZM9.49542 6.28571C9.636 5.02835 10.2351 3.86693 11.1782 3.02355C12.1213 2.18018 13.3422 1.71404 14.6074 1.71429H14.8623C14.7217 2.97165 14.1226 4.13307 13.1795 4.97645C12.2364 5.81982 11.0155 6.28596 9.75028 6.28571H9.49542ZM2.60742 4C3.87262 3.99976 5.09351 4.46589 6.03661 5.30927C6.97972 6.15264 7.57885 7.31407 7.71942 8.57143H7.46457C6.19937 8.57167 4.97848 8.10553 4.03537 7.26216C3.09227 6.41879 2.49314 5.25736 2.35256 4H2.60742Z" fill="black"/>
</svg>
