<svg width="16" height="16" viewBox="0 0 16 16" fill="none" xmlns="http://www.w3.org/2000/svg">
<path id="Vector" d="M4.936 0.608C5.90806 0.207959 6.94884 0.00143322 8 0C9.048 0 10.088 0.208 11.064 0.608C12.032 1.008 12.912 1.6 13.656 2.344C14.4 3.088 14.992 3.968 15.392 4.936C15.792 5.912 16 6.952 16 8C16 10.12 15.16 12.16 13.656 13.656C12.914 14.3998 12.0324 14.9898 11.0618 15.3921C10.0912 15.7943 9.05066 16.0009 8 16C6.94884 15.9986 5.90806 15.792 4.936 15.392C3.96621 14.9895 3.08538 14.3996 2.344 13.656C1.60016 12.914 1.01018 12.0324 0.607937 11.0618C0.20569 10.0912 -0.000907233 9.05066 2.99465e-06 8C2.99465e-06 5.88 0.840003 3.84 2.344 2.344C3.088 1.6 3.968 1.008 4.936 0.608ZM8 12L9.248 9.264L12 8L9.248 6.752L8 4L6.744 6.752L4 8L6.744 9.264L8 12Z" fill="black"/>
</svg>
