<svg width="17" height="16" viewBox="0 0 17 16" fill="none" xmlns="http://www.w3.org/2000/svg">
<g id="Group">
<path id="Vector" d="M11.9422 10.8391H9.73338C9.48566 10.8391 9.28955 10.643 9.28955 10.3953V8.1865C9.28955 7.94395 9.48566 7.74268 9.73338 7.74268H11.9422C12.1848 7.74268 12.386 7.93879 12.386 8.1865V10.3953C12.386 10.643 12.1899 10.8391 11.9422 10.8391Z" fill="black"/>
<path id="Vector_2" d="M9.43363 0.476862L9.4357 0.479442L16.0183 6.96397L16.0198 6.96552C16.1764 7.11816 16.3009 7.30064 16.3858 7.50217C16.4707 7.7037 16.5144 7.92021 16.5142 8.1389C16.5141 8.35759 16.4701 8.57403 16.385 8.77545C16.2998 8.97687 16.1751 9.15918 16.0183 9.31162C15.736 9.59087 15.3623 9.75875 14.966 9.78435V12.9587C15.4071 13.0643 15.7997 13.3154 16.0806 13.6715C16.3615 14.0275 16.5143 14.4679 16.5142 14.9214V16H-0.000291579V14.9214C-0.00100114 14.4676 0.151488 14.0269 0.43248 13.6706C0.713471 13.3143 1.10651 13.0633 1.54795 12.9582V9.80499C1.15187 9.77756 0.778572 9.60976 0.495144 9.33174C0.338357 9.1788 0.21374 8.99605 0.128623 8.79423C0.0435058 8.59242 -0.000391952 8.37562 -0.000488123 8.15659C-0.000584294 7.93756 0.0431231 7.72073 0.128063 7.51884C0.213003 7.31695 0.33746 7.13409 0.494112 6.98101L0.49566 6.97997L2.06402 5.43586V1.81815C2.06402 1.06313 2.68745 0.5166 3.37641 0.5166H4.88543C5.45415 0.5166 5.96507 0.888177 6.13434 1.42954L7.09683 0.480475C7.74709 -0.165656 8.78957 -0.15327 9.4326 0.476346M5.1605 3.83602V1.81815C5.15968 1.74597 5.13026 1.67706 5.07869 1.62656C5.02711 1.57605 4.95761 1.54807 4.88543 1.54876H3.37641C3.34024 1.54787 3.30424 1.55416 3.27051 1.56729C3.23679 1.58041 3.206 1.60009 3.17993 1.62519C3.15387 1.6503 3.13305 1.68033 3.11867 1.71354C3.10429 1.74675 3.09665 1.78248 3.09618 1.81867V5.86782L5.1605 3.83602ZM2.5801 8.1267V13.9357H3.61226C3.61226 13.6518 3.8445 13.4196 4.12834 13.4196V8.46009C4.12834 8.07303 4.44315 7.75822 4.83021 7.75822H7.56026C7.94732 7.75822 8.26213 8.07303 8.26213 8.46009V13.4206C8.53411 13.4341 8.75241 13.6606 8.75241 13.9357H13.9338V8.10606L8.26729 2.5257L2.5801 8.1267ZM7.74089 10.5812C7.74089 10.5127 7.71371 10.4471 7.66532 10.3987C7.61692 10.3503 7.55129 10.3231 7.48285 10.3231C7.41442 10.3231 7.34878 10.3503 7.30039 10.3987C7.252 10.4471 7.22481 10.5127 7.22481 10.5812C7.22481 10.6496 7.252 10.7152 7.30039 10.7636C7.34878 10.812 7.41442 10.8392 7.48285 10.8392C7.55129 10.8392 7.61692 10.812 7.66532 10.7636C7.71371 10.7152 7.74089 10.6496 7.74089 10.5812Z" fill="black"/>
</g>
</svg>
