<svg width="26" height="16" viewBox="0 0 26 16" fill="none" xmlns="http://www.w3.org/2000/svg">
<g id="Group">
<path id="Vector" d="M22.8618 13.729C22.8618 14.3075 22.8686 14.8725 22.8618 15.4308C22.8551 15.7335 22.6466 15.9622 22.3574 15.9958C22.1152 16.0294 21.8394 15.8613 21.7654 15.6191C21.7318 15.5182 21.7251 15.4039 21.7251 15.2963C21.7183 14.8658 21.7251 14.442 21.7251 14.0115C21.7251 13.9173 21.7251 13.8299 21.7251 13.7222C15.6308 13.7222 9.56346 13.7222 3.44903 13.7222C3.44903 13.8702 3.44903 14.0182 3.44903 14.1662C3.44903 14.5698 3.45576 14.9734 3.44903 15.377C3.44231 15.7469 3.1867 16.0093 2.86383 15.9958C2.54768 15.9891 2.31225 15.7335 2.31225 15.3702C2.30552 14.8254 2.31225 14.2805 2.31225 13.729C2.13736 13.7021 1.98265 13.6886 1.82794 13.655C0.785324 13.4263 0.018498 12.5047 0.00504491 11.4419C-0.00168164 10.8702 -0.00168164 10.2984 0.00504491 9.7334C0.0117715 8.81859 0.758417 8.04504 1.64632 8.01141C2.59476 7.97778 3.35486 8.63698 3.44231 9.57869C3.46249 9.80067 3.44231 10.0294 3.44231 10.2715C9.55001 10.2715 15.6174 10.2715 21.7318 10.2715C21.7318 10.1235 21.7318 9.97556 21.7318 9.82758C21.7385 8.8455 22.3708 8.10558 23.2654 8.01813C24.1735 7.93069 24.9673 8.5159 25.1489 9.46434C25.2161 9.82085 25.1892 10.1975 25.1758 10.5675C25.1623 11.0316 25.1825 11.5159 25.0816 11.9666C24.8462 12.9891 24.0592 13.6213 23.0031 13.7088C22.9627 13.7088 22.9358 13.7155 22.8618 13.729Z" fill="black"/>
<path id="Vector_2" d="M11.9985 9.1481C11.8909 9.1481 11.8102 9.1481 11.7227 9.1481C9.41551 9.1481 7.10831 9.1481 4.8011 9.15483C4.60603 9.15483 4.51859 9.11447 4.45805 8.90594C4.15535 7.94405 3.51633 7.2983 2.54771 6.99561C2.36609 6.94179 2.29883 6.87453 2.29883 6.67273C2.30555 5.2467 2.29883 3.82068 2.30555 2.39465C2.31228 0.968622 3.2809 0.00672654 4.71366 0C6.34821 0 7.98276 0 9.61731 0C11.0097 0 11.9918 0.955168 12.0052 2.34084C12.0187 4.54714 12.012 6.75345 12.012 8.95975C12.012 9.01357 12.0052 9.06065 11.9985 9.1481Z" fill="black"/>
<path id="Vector_3" d="M13.1688 9.1213C13.1621 9.04059 13.1553 8.98005 13.1553 8.91278C13.1553 6.74011 13.1486 4.56743 13.1553 2.39476C13.1621 1.14362 13.9154 0.235539 15.1195 0.0337427C15.2675 0.00683655 15.4222 0.00683594 15.5702 0.00683594C17.198 0.00683594 18.8258 0.00683594 20.4536 0.00683594C21.8864 0.00683594 22.855 0.968732 22.8617 2.40149C22.8685 3.83424 22.8617 5.26699 22.8685 6.70647C22.8685 6.86791 22.8281 6.93518 22.6667 6.98899C21.651 7.29841 20.9918 7.96434 20.6823 8.98005C20.6622 9.04731 20.5545 9.14821 20.494 9.14821C18.0859 9.15494 15.6778 9.15494 13.2697 9.15494C13.2428 9.14148 13.2226 9.13476 13.1688 9.1213Z" fill="black"/>
</g>
</svg>
