<svg width="21" height="16" viewBox="0 0 21 16" fill="none" xmlns="http://www.w3.org/2000/svg">
<path d="M10.9773 2C10.9773 0.89 11.8268 0 12.8864 0H16.2273C17.2773 0 18.1364 0.9 18.1364 2V4.16C17.0291 4.57 16.2273 5.67 16.2273 6.97V9H10.9773V2ZM4.77273 6.96V9H10.0227V2C10.0227 0.89 9.17318 0 8.11364 0H4.77273C3.72273 0 2.86364 0.9 2.86364 2V4.15C3.97091 4.56 4.77273 5.67 4.77273 6.96ZM18.7664 5.03C17.8309 5.19 17.1818 6.12 17.1818 7.12V10H3.81818V7C3.81818 6.46957 3.61705 5.96086 3.25902 5.58579C2.901 5.21071 2.41541 5 1.90909 5C1.40277 5 0.917184 5.21071 0.55916 5.58579C0.201136 5.96086 0 6.46957 0 7V12C0 13.1 0.859091 14 1.90909 14V16H3.81818V14H17.1818V16H19.0909V14C20.1409 14 21 13.1 21 12V7C21 5.79 19.9595 4.82 18.7664 5.03Z" fill="black"/>
</svg>
