<svg width="16" height="16" viewBox="0 0 16 16" fill="none" xmlns="http://www.w3.org/2000/svg">
<g id="Group">
<path id="Vector" d="M2.7577 13.1721C2.7577 13.1074 2.7577 13.0471 2.7577 12.991C2.7577 12.0125 2.75338 11.0339 2.76201 10.0554C2.76201 9.92605 2.72321 9.87432 2.60251 9.82259C1.13251 9.16304 0.274662 8.02929 0.0375664 6.4386C-0.177975 4.99016 0.529 3.11064 2.28782 2.19244C2.97324 1.83464 3.70177 1.68807 4.46909 1.72256C4.53375 1.72687 4.61997 1.69238 4.65877 1.64496C5.3873 0.722445 6.33137 0.166349 7.4996 0.0327135C9.02994 -0.14403 10.293 0.399134 11.2845 1.57168C11.375 1.67945 11.4526 1.73118 11.6035 1.72687C13.8322 1.65358 15.6298 3.1753 15.9661 5.40831C16.1988 6.93434 15.4013 8.98198 13.4011 9.82259C13.2804 9.87432 13.2416 9.92605 13.2459 10.0554C13.2502 11.0339 13.2502 12.0125 13.2502 12.991C13.2502 13.0471 13.2502 13.1074 13.2502 13.1721C9.74554 13.1721 6.26239 13.1721 2.7577 13.1721ZM11.9915 6.85244C11.9915 6.50326 11.8147 6.30496 11.5863 6.27479C11.3405 6.24461 11.1164 6.39118 11.069 6.63258C10.9267 7.40422 10.5344 8.02929 9.95677 8.5509C9.7283 8.75782 9.70243 9.04664 9.8878 9.24925C10.0689 9.44755 10.3491 9.44755 10.5775 9.24925C11.0819 8.80524 11.4742 8.27501 11.7285 7.65425C11.8535 7.36111 11.9268 7.05504 11.9915 6.85244ZM6.23653 8.93887C6.24084 8.76213 6.146 8.63712 6.02099 8.52503C5.46058 8.01636 5.08123 7.39991 4.93897 6.64552C4.89155 6.38687 4.65877 6.23599 4.40012 6.2791C4.1544 6.31789 3.97766 6.55499 4.02508 6.81364C4.06387 7.02918 4.11992 7.24472 4.1932 7.45164C4.44754 8.17155 4.87862 8.77506 5.45196 9.27512C5.61146 9.41306 5.7882 9.43893 5.97788 9.35271C6.15031 9.27081 6.23222 9.12424 6.23653 8.93887ZM8.47385 7.68874C8.47385 7.29214 8.47385 6.89554 8.47385 6.49464C8.47385 6.17995 8.28848 5.96872 8.01259 5.96009C7.7367 5.95578 7.5384 6.17564 7.5384 6.49464C7.5384 7.28352 7.5384 8.0724 7.5384 8.86128C7.5384 9.17597 7.72376 9.3872 7.99966 9.39582C8.27986 9.40013 8.47385 9.18459 8.47385 8.86128C8.47385 8.47331 8.47385 8.08102 8.47385 7.68874Z" fill="black"/>
<path id="Vector_2" d="M13.2461 14.1292C13.2461 14.6033 13.2505 15.0689 13.2418 15.5302C13.2375 15.8017 13.022 16 12.7461 16C9.58195 16 6.42211 16 3.25797 16C2.98208 16 2.76654 15.8017 2.76222 15.5302C2.7536 15.0689 2.75791 14.6077 2.75791 14.1292C6.25399 14.1292 9.74145 14.1292 13.2461 14.1292Z" fill="black"/>
</g>
</svg>
