<svg width="12" height="16" viewBox="0 0 12 16" fill="none" xmlns="http://www.w3.org/2000/svg">
<path d="M6.10742 0C3.06671 0 0.607422 2.504 0.607422 5.6C0.607422 9.8 6.10742 16 6.10742 16C6.10742 16 11.6074 9.8 11.6074 5.6C11.6074 2.504 9.14814 0 6.10742 0ZM6.10742 7.6C5.58646 7.6 5.08684 7.38929 4.71846 7.01421C4.35009 6.63914 4.14314 6.13043 4.14314 5.6C4.14314 5.06957 4.35009 4.56086 4.71846 4.18579C5.08684 3.81071 5.58646 3.6 6.10742 3.6C6.62838 3.6 7.12801 3.81071 7.49638 4.18579C7.86476 4.56086 8.07171 5.06957 8.07171 5.6C8.07171 6.13043 7.86476 6.63914 7.49638 7.01421C7.12801 7.38929 6.62838 7.6 6.10742 7.6Z" fill="black"/>
</svg>
