<svg width="12" height="16" viewBox="0 0 12 16" fill="none" xmlns="http://www.w3.org/2000/svg">
<g id="Group">
<path id="Vector" d="M11.9843 5.89783C11.9711 6.67897 11.7561 7.40306 11.4621 8.1096C10.9837 9.26376 10.3474 10.3301 9.62771 11.3439C8.67104 12.6911 7.67925 14.0164 6.70502 15.3505C6.59531 15.4997 6.49438 15.6577 6.37589 15.8025C6.16525 16.0614 5.79223 16.0702 5.59475 15.8025C4.30895 14.0252 2.91781 12.3225 1.75049 10.4574C1.24582 9.64994 0.776263 8.82053 0.429578 7.92968C-0.43933 5.68719 0.0390086 3.68168 1.60129 1.9307C2.82566 0.557123 4.41427 -0.0572568 6.25302 0.00418115C8.99139 0.0963381 11.3611 2.16767 11.8526 4.87533C11.9141 5.21324 11.9404 5.55554 11.9843 5.89783ZM8.74564 5.97244C8.73686 4.44088 7.49494 3.20773 5.96777 3.21212C4.44937 3.21651 3.21184 4.46721 3.22062 5.9856C3.225 7.52155 4.47132 8.75031 6.01604 8.74153C7.52127 8.73276 8.75442 7.48206 8.74564 5.97244Z" fill="black"/>
</g>
</svg>
