<svg width="16" height="16" viewBox="0 0 16 16" fill="none" xmlns="http://www.w3.org/2000/svg">
<g id="Group">
<path id="Vector" d="M0 8.47182C0 8.15867 0 7.84552 0 7.53237C0.00835072 7.47809 0.0208767 7.42381 0.0292274 7.36535C0.0793318 7.0188 0.108559 6.67224 0.183716 6.33404C0.601252 4.41337 1.58664 2.83926 3.1524 1.65346C5.09812 0.179554 7.29436 -0.308964 9.68266 0.187905C11.595 0.588739 13.1524 1.59083 14.3424 3.13571C15.6284 4.80585 16.1628 6.70982 15.9624 8.80168C15.7996 10.4969 15.1399 11.9958 14.0083 13.2735C12.7683 14.6764 11.2234 15.5491 9.37786 15.8747C9.07724 15.929 8.77244 15.9582 8.46763 16C8.15448 16 7.84133 16 7.52818 16C7.48642 15.9916 7.44885 15.9791 7.40709 15.9749C6.15448 15.8873 4.98538 15.5282 3.91649 14.8727C1.84133 13.6033 0.567849 11.7704 0.121085 9.3737C0.0668055 9.07725 0.0417536 8.77245 0 8.47182ZM8.01252 10.7516C7.5073 10.7516 7.00208 10.7474 6.49686 10.7557C6.43423 10.7557 6.34655 10.7975 6.30897 10.8476C5.86221 11.4864 5.42379 12.1336 4.98121 12.7766C4.9311 12.8476 4.9311 12.8977 4.98121 12.9687C5.4572 13.6451 5.92901 14.3257 6.40918 15.0021C6.44258 15.048 6.50104 15.0898 6.55532 15.0981C7.46555 15.2944 8.38413 15.3069 9.29853 15.1315C9.36116 15.119 9.42797 15.0689 9.46555 15.0188C9.94154 14.3424 10.405 13.6576 10.881 12.977C10.9353 12.8977 10.9436 12.8434 10.8893 12.7599C10.4927 12.1294 10.1002 11.499 9.71189 10.8643C9.65761 10.7766 9.59916 10.7516 9.49895 10.7516C9.00208 10.7557 8.50521 10.7516 8.01252 10.7516ZM11.5574 12.4175C12.476 12.1169 13.3737 11.8246 14.2714 11.5282C14.3215 11.5115 14.3716 11.4572 14.4008 11.4071C14.8267 10.6138 15.0981 9.77036 15.1941 8.87683C15.2025 8.8142 15.1816 8.7307 15.144 8.68059C14.6513 8.02088 14.1503 7.36953 13.6534 6.71399C13.5992 6.64301 13.5574 6.63049 13.4697 6.65136C12.7683 6.82673 12.0626 6.98957 11.3612 7.16493C11.3027 7.18164 11.2359 7.25262 11.215 7.31525C10.8977 8.26723 10.5929 9.22339 10.2756 10.1754C10.2422 10.2714 10.2547 10.3424 10.309 10.4217C10.4217 10.5971 10.5303 10.7724 10.6388 10.952C10.952 11.4363 11.2526 11.9207 11.5574 12.4175ZM0.801669 8.83508C0.805845 8.88936 0.81002 8.91024 0.81002 8.93111C0.92693 9.83299 1.2025 10.6848 1.64509 11.4781C1.67014 11.524 1.7286 11.5699 1.78288 11.5866C2.58455 11.8539 3.39039 12.1169 4.19624 12.3841C4.27975 12.4134 4.32567 12.405 4.37578 12.3299C4.81419 11.6785 5.26096 11.0313 5.69937 10.38C5.7286 10.3382 5.74112 10.2589 5.72442 10.2129C5.41127 9.23591 5.09812 8.26305 4.77661 7.2902C4.75991 7.24009 4.69728 7.17746 4.643 7.16493C3.94154 6.98957 3.24008 6.81838 2.53445 6.65554C2.48434 6.64301 2.40083 6.67224 2.37161 6.70982C1.85804 7.37788 1.35282 8.05429 0.843423 8.72652C0.822546 8.7641 0.81002 8.8142 0.801669 8.83508ZM13.3528 4.50105H13.357C13.357 4.07934 13.3612 3.65763 13.3528 3.23592C13.3528 3.16911 13.3236 3.08978 13.2818 3.04385C12.6555 2.36744 11.9207 1.83717 11.0856 1.44469C11.0355 1.41964 10.9645 1.41546 10.9102 1.43216C10.1002 1.69939 9.29436 1.97496 8.48434 2.24218C8.40083 2.27141 8.3716 2.30899 8.37578 2.39667C8.37995 3.07725 8.37578 3.76201 8.37995 4.4426C8.37995 4.49688 8.41753 4.57203 8.46346 4.60544C9.28601 5.21086 10.1127 5.80794 10.9394 6.40502C10.9896 6.43842 11.0731 6.45512 11.1357 6.4426C11.833 6.27976 12.5303 6.10857 13.2317 5.94155C13.3278 5.92068 13.357 5.87892 13.3528 5.78289C13.3486 5.357 13.3528 4.92694 13.3528 4.50105ZM2.65971 5.89145C2.68893 5.90398 2.70563 5.9165 2.72651 5.92068C3.45302 6.10022 4.17954 6.27558 4.91023 6.45095C4.95198 6.4593 5.01461 6.4426 5.04801 6.41755C5.88308 5.81629 6.71816 5.21086 7.54905 4.60126C7.59081 4.57203 7.62421 4.50105 7.62421 4.45095C7.62839 3.76201 7.62421 3.07725 7.62839 2.38832C7.62839 2.30481 7.59916 2.27141 7.524 2.24636C6.70981 1.97913 5.89561 1.70774 5.08142 1.44051C5.02714 1.42381 4.95615 1.42799 4.90605 1.44886C4.06263 1.84552 3.32359 2.38832 2.69311 3.07308C2.66806 3.10231 2.643 3.13989 2.643 3.17746C2.64718 3.46139 2.65971 3.74949 2.66388 4.03341C2.66388 4.65137 2.65971 5.2735 2.65971 5.89145Z" fill="black"/>
</g>
</svg>
