<svg width="16" height="16" viewBox="0 0 16 16" fill="none" xmlns="http://www.w3.org/2000/svg">
<path d="M2.84261 13.1997L0.47191 11.8893C0.298059 11.794 0.199438 11.6551 0.176047 11.4728C0.152656 11.2904 0.203863 11.1354 0.329668 11.0077L0.614152 10.7218C0.677371 10.6583 0.752601 10.6147 0.839843 10.5912C0.927085 10.5677 1.0099 10.5636 1.08829 10.5788L3.17451 10.8647L6.8728 7.14786L0.424496 3.62158C0.187426 3.49451 0.0492931 3.29596 0.0100975 3.02593C-0.0290981 2.7559 0.045816 2.52558 0.23484 2.33497L0.47191 2.09671C0.582543 1.98552 0.705187 1.91404 0.839843 1.88227C0.974499 1.8505 1.11263 1.8505 1.25424 1.88227L9.85988 4.09811L13.5819 0.405045C13.8506 0.135015 14.1866 0 14.5899 0C14.9932 0 15.3289 0.135015 15.597 0.405045C15.8657 0.675076 16 1.01277 16 1.41814C16 1.8235 15.8657 2.16088 15.597 2.43027L11.8987 6.14716L14.1034 14.7484C14.135 14.9073 14.1313 15.0623 14.0921 15.2135C14.0529 15.3647 13.9776 15.4956 13.8664 15.6062L13.7478 15.7253C13.5266 15.9477 13.2699 16.035 12.9778 15.9874C12.6858 15.9397 12.4683 15.7809 12.3254 15.5109L8.86419 9.14926L5.1659 12.8662L5.45038 14.9152C5.46619 15.0264 5.45828 15.1296 5.42667 15.2249C5.39506 15.3203 5.33975 15.4076 5.26073 15.487L5.14219 15.6062C4.98414 15.765 4.79449 15.8324 4.57322 15.8082C4.35196 15.7841 4.18601 15.6691 4.07537 15.4632L2.84261 13.1997Z" fill="black"/>
</svg>
