<svg width="19" height="16" viewBox="0 0 19 16" fill="none" xmlns="http://www.w3.org/2000/svg">
<g id="Group">
<path id="Vector" d="M9.75977 8.9817C9.70357 9.0098 9.6586 9.03228 9.61926 9.05476C8.59637 9.71796 7.57347 10.3868 6.54495 11.0443C6.38196 11.1511 6.33138 11.2748 6.31452 11.4546C6.2527 12.1797 6.17963 12.9047 6.11781 13.6297C6.08409 14.0006 5.90424 14.276 5.61198 14.484C5.39841 14.6357 5.18484 14.7819 4.97127 14.928C4.44296 15.2877 3.94275 15.1191 3.7348 14.5065C3.4313 13.6128 3.12219 12.7192 2.82993 11.82C2.76811 11.6401 2.6838 11.4996 2.53205 11.3816C1.80703 10.7802 1.08201 10.1676 0.362613 9.55497C-0.143215 9.12782 -0.120733 8.622 0.435677 8.24543C0.694211 8.07121 0.958365 7.89136 1.23376 7.74523C1.53164 7.58786 1.852 7.58786 2.17797 7.67778C2.84117 7.86888 3.50999 8.06559 4.17318 8.2623C4.29121 8.29602 4.39237 8.30164 4.50478 8.22295C5.5333 7.49231 6.56743 6.76729 7.60157 6.04228C7.62967 6.02541 7.65215 5.99731 7.70274 5.95797C7.51727 5.83994 7.35428 5.73316 7.18567 5.63199C5.51082 4.61472 3.83034 3.59744 2.16111 2.57454C1.67214 2.27667 1.6609 1.71464 2.13301 1.38866C2.40278 1.20319 2.67818 1.02334 2.94795 0.832248C3.25707 0.613056 3.58867 0.562473 3.94837 0.669259C6.47751 1.40552 9.00103 2.14178 11.5245 2.88928C11.7887 2.96797 11.9686 2.93424 12.1877 2.77125C13.0364 2.1474 13.8851 1.52917 14.7562 0.939034C15.4307 0.483789 16.1669 0.124089 16.9931 0.0229237C17.6956 -0.0670013 18.3083 0.0959873 18.7185 0.719842C19.0389 1.21443 19.0277 1.74274 18.8085 2.27105C18.5387 2.923 18.0891 3.45693 17.5327 3.85597C16.5154 4.58661 15.47 5.28353 14.4134 5.96359C14.1436 6.13782 14.0481 6.32329 14.02 6.62679C13.8851 8.2623 13.7277 9.89219 13.576 11.5277C13.486 12.5 13.3961 13.4667 13.3118 14.439C13.2781 14.7987 13.1207 15.0797 12.8285 15.2821C12.5474 15.4788 12.2608 15.6699 11.9798 15.861C11.5245 16.1645 11.0019 15.9509 10.9063 15.4169C10.5522 13.4386 10.2094 11.4546 9.86093 9.47628C9.82159 9.31329 9.79349 9.15593 9.75977 8.9817Z" fill="black"/>
</g>
</svg>
