<svg width="17" height="16" viewBox="0 0 17 16" fill="none" xmlns="http://www.w3.org/2000/svg">
<path d="M4.26942 8.98262C4.12288 8.3268 4.1255 7.6464 4.27709 6.99173C4.42867 6.33705 4.72536 5.72485 5.14519 5.20036C5.56503 4.67588 6.0973 4.25254 6.70263 3.96162C7.30797 3.67071 7.9709 3.51967 8.64242 3.51967C9.31394 3.51967 9.97687 3.67071 10.5822 3.96162C11.1875 4.25254 11.7198 4.67588 12.1396 5.20036C12.5595 5.72485 12.8562 6.33705 13.0078 6.99173C13.1593 7.6464 13.162 8.3268 13.0154 8.98262H16.1074C16.24 8.98262 16.3672 9.03534 16.461 9.12917C16.5547 9.22301 16.6074 9.35028 16.6074 9.48299C16.6074 9.6157 16.5547 9.74297 16.461 9.83681C16.3672 9.93065 16.24 9.98336 16.1074 9.98336H1.10742C0.974814 9.98336 0.847637 9.93065 0.753869 9.83681C0.6601 9.74297 0.607422 9.6157 0.607422 9.48299C0.607422 9.35028 0.6601 9.22301 0.753869 9.12917C0.847637 9.03534 0.974814 8.98262 1.10742 8.98262H4.26942ZM8.74242 15.9878C8.66998 16.0041 8.59486 16.0041 8.52242 15.9878H8.74242ZM3.68342 2.35968L3.61442 2.30164C3.51176 2.23028 3.38611 2.19999 3.26224 2.21673C3.13837 2.23348 3.02526 2.29606 2.9452 2.39212C2.86514 2.48819 2.82394 2.61078 2.82972 2.73574C2.8355 2.86069 2.88784 2.97895 2.97642 3.06721L3.83442 3.92585L3.90442 3.98389C4.00708 4.05525 4.13273 4.08554 4.2566 4.0688C4.38048 4.05205 4.49359 3.98947 4.57365 3.89341C4.65371 3.79734 4.6949 3.67475 4.68912 3.54979C4.68334 3.42483 4.63101 3.30658 4.54242 3.21832L3.68342 2.35968ZM14.3464 2.99716C14.4166 2.89436 14.4459 2.76909 14.4288 2.6458C14.4116 2.5225 14.3491 2.41005 14.2535 2.33039C14.1579 2.25073 14.0361 2.20959 13.9118 2.21501C13.7875 2.22043 13.6697 2.27201 13.5814 2.35968L12.7224 3.21832L12.6644 3.28837C12.5943 3.39116 12.5649 3.51644 12.5821 3.63973C12.5993 3.76303 12.6617 3.87548 12.7573 3.95514C12.8529 4.0348 12.9748 4.07594 13.099 4.07052C13.2233 4.0651 13.3411 4.01352 13.4294 3.92585L14.2884 3.06721L14.3464 2.99716ZM9.12742 0.411228C9.10516 0.288189 9.03768 0.177949 8.93825 0.102217C8.83883 0.0264855 8.71468 -0.00925014 8.59024 0.00204775C8.46581 0.0133456 8.35011 0.0708582 8.26593 0.16326C8.18175 0.255662 8.13519 0.376256 8.13542 0.501295V1.7152L8.14342 1.80527C8.16568 1.92831 8.23317 2.03855 8.33259 2.11428C8.43201 2.19001 8.55617 2.22575 8.6806 2.21445C8.80504 2.20315 8.92073 2.14564 9.00491 2.05324C9.08909 1.96083 9.13565 1.84024 9.13542 1.7152V0.500294L9.12742 0.411228ZM7.10742 13.9863C6.97481 13.9863 6.84764 14.0391 6.75387 14.1329C6.6601 14.2267 6.60742 14.354 6.60742 14.4867C6.60742 14.6194 6.6601 14.7467 6.75387 14.8405C6.84764 14.9344 6.97481 14.9871 7.10742 14.9871H10.1074C10.24 14.9871 10.3672 14.9344 10.461 14.8405C10.5547 14.7467 10.6074 14.6194 10.6074 14.4867C10.6074 14.354 10.5547 14.2267 10.461 14.1329C10.3672 14.0391 10.24 13.9863 10.1074 13.9863H7.10742ZM3.60742 11.9849C3.60742 11.8521 3.6601 11.7249 3.75387 11.631C3.84764 11.5372 3.97481 11.4845 4.10742 11.4845H13.1074C13.24 11.4845 13.3672 11.5372 13.461 11.631C13.5547 11.7249 13.6074 11.8521 13.6074 11.9849C13.6074 12.1176 13.5547 12.2448 13.461 12.3387C13.3672 12.4325 13.24 12.4852 13.1074 12.4852H4.10742C3.97481 12.4852 3.84764 12.4325 3.75387 12.3387C3.6601 12.2448 3.60742 12.1176 3.60742 11.9849Z" fill="black"/>
</svg>
