<svg width="16" height="16" viewBox="0 0 16 16" fill="none" xmlns="http://www.w3.org/2000/svg">
<g id="Group">
<path id="Vector" d="M7.98664 9.94586C6.62599 9.94586 5.26533 9.94586 3.90467 9.9503C3.78057 9.9503 3.72296 9.91484 3.6742 9.7996C2.49526 6.9409 4.47198 3.6833 7.55229 3.41294C10.1495 3.1869 12.3789 5.03952 12.6271 7.63674C12.698 8.38133 12.5872 9.10376 12.3079 9.7996C12.2592 9.91484 12.2016 9.9503 12.0775 9.9503C10.7168 9.94586 9.35173 9.94586 7.98664 9.94586Z" fill="black"/>
<path id="Vector_2" d="M7.99568 11.1955C5.82395 11.1955 3.64779 11.1955 1.47606 11.1955C1.17467 11.1955 1.02398 11.0891 1.02842 10.8808C1.03285 10.6769 1.18354 10.5706 1.47163 10.5706C5.81952 10.5706 10.1674 10.5706 14.5109 10.5706C14.5818 10.5706 14.6571 10.5706 14.7236 10.5883C14.8743 10.6237 14.9674 10.7611 14.9585 10.9074C14.9452 11.0581 14.8344 11.1733 14.6793 11.1911C14.6128 11.1999 14.5463 11.1955 14.4799 11.1955C12.3214 11.1955 10.1585 11.1955 7.99568 11.1955Z" fill="black"/>
<path id="Vector_3" d="M8.00018 12.1751C8.89103 12.1751 9.77746 12.1751 10.6683 12.1751C10.7215 12.1751 10.7791 12.1751 10.8323 12.1795C10.983 12.1972 11.0938 12.3213 11.1027 12.4676C11.1115 12.6139 11.0096 12.7513 10.8589 12.7823C10.7968 12.7956 10.7259 12.7956 10.6594 12.7956C8.88217 12.7956 7.10046 12.7956 5.32319 12.7956C5.03067 12.7956 4.88441 12.6936 4.87998 12.4853C4.87555 12.277 5.02181 12.1707 5.32762 12.1707C6.21848 12.1751 7.10933 12.1751 8.00018 12.1751Z" fill="black"/>
<path id="Vector_4" d="M5.20356 13.7752C5.91713 13.7752 6.6307 13.7752 7.34427 13.7752C7.58804 13.7752 7.73429 13.9392 7.68997 14.1519C7.65895 14.2982 7.53928 14.3957 7.362 14.4001C7.12266 14.4045 6.88776 14.4001 6.64843 14.4001C5.46506 14.4001 4.28168 14.4001 3.09831 14.4001C2.88557 14.4001 2.74818 14.3114 2.71715 14.1519C2.67726 13.948 2.81909 13.7752 3.04513 13.7752C3.58141 13.7707 4.1177 13.7752 4.65398 13.7752C4.84013 13.7752 5.02185 13.7752 5.20356 13.7752Z" fill="black"/>
<path id="Vector_5" d="M10.8055 13.775C11.5058 13.775 12.2105 13.775 12.9107 13.775C13.0614 13.775 13.1811 13.8194 13.2476 13.9656C13.3229 14.134 13.2387 14.3246 13.0614 14.3778C12.9905 14.4 12.9107 14.4 12.831 14.4C11.4703 14.4 10.1096 14.4 8.75341 14.4C8.70909 14.4 8.66477 14.4 8.62045 14.4C8.4343 14.3822 8.30134 14.2493 8.30577 14.0808C8.3102 13.908 8.44317 13.7795 8.63375 13.7795C9.35618 13.7706 10.083 13.775 10.8055 13.775Z" fill="black"/>
<path id="Vector_6" d="M7.99135 16C7.72543 16 7.4595 16 7.19801 16C6.97197 16 6.83014 15.8759 6.83457 15.6809C6.83901 15.4947 6.9764 15.375 7.19357 15.3706C7.72986 15.3706 8.26614 15.3706 8.80243 15.3706C9.01517 15.3706 9.157 15.4947 9.157 15.6809C9.157 15.867 9.02403 15.9955 8.80686 15.9955C8.53207 16 8.26171 16 7.99135 16Z" fill="black"/>
<path id="Vector_7" d="M11.1735 2.93428C10.8899 2.94314 10.7347 2.7304 10.8057 2.52652C10.8234 2.47334 10.85 2.42459 10.881 2.38027C11.0937 2.00797 11.3109 1.63124 11.5281 1.25894C11.6522 1.0462 11.8206 0.97972 11.989 1.07279C12.1619 1.16587 12.1929 1.35202 12.0732 1.56033C11.8472 1.95478 11.6256 2.34924 11.3907 2.73483C11.3286 2.83234 11.2178 2.89439 11.1735 2.93428Z" fill="black"/>
<path id="Vector_8" d="M4.8579 2.96969C4.77813 2.90321 4.66732 2.85445 4.61857 2.77024C4.36594 2.35363 4.12661 1.93258 3.88727 1.50709C3.7942 1.34311 3.84738 1.16139 4.00251 1.07718C4.15763 0.992971 4.33048 1.03729 4.42799 1.20571C4.67619 1.62233 4.91995 2.04338 5.15485 2.46886C5.27895 2.69047 5.12826 2.9431 4.8579 2.96969Z" fill="black"/>
<path id="Vector_9" d="M2.96098 4.86665C2.93439 5.13701 2.68619 5.28327 2.46016 5.1636C2.20309 5.02621 1.95046 4.87108 1.69783 4.72482C1.53385 4.63175 1.36986 4.53868 1.2103 4.44117C1.03302 4.3348 0.979834 4.16195 1.06848 4.00682C1.15712 3.8517 1.33883 3.79851 1.51612 3.90045C1.93274 4.13535 2.35379 4.37469 2.76154 4.62289C2.84132 4.67607 2.8945 4.78244 2.96098 4.86665Z" fill="black"/>
<path id="Vector_10" d="M14.9586 4.22832C14.9275 4.26821 14.8788 4.37901 14.7946 4.4322C14.3779 4.68483 13.9569 4.92416 13.5314 5.16349C13.363 5.25657 13.1857 5.20781 13.0971 5.05712C13.0084 4.90643 13.0528 4.72471 13.2167 4.62721C13.6334 4.37901 14.0544 4.13524 14.4799 3.89591C14.7104 3.77181 14.963 3.91807 14.9586 4.22832Z" fill="black"/>
<path id="Vector_11" d="M8.30152 1.06381C8.30152 1.29428 8.30595 1.52918 8.30152 1.75965C8.29708 1.97239 8.18185 2.09649 8.00013 2.10092C7.80955 2.10535 7.68545 1.97682 7.68545 1.75522C7.68102 1.28541 7.68102 0.815611 7.68545 0.345808C7.68545 0.141931 7.80955 0.00453622 7.98684 0.000104116C8.17299 -0.00432799 8.29708 0.133067 8.30152 0.35024C8.30595 0.589574 8.30152 0.828908 8.30152 1.06381Z" fill="black"/>
<path id="Vector_12" d="M1.04608 8.31041C0.815612 8.31041 0.580709 8.31041 0.35024 8.31041C0.133067 8.30598 -0.00432799 8.18188 0.000104116 8.00017C0.000104116 7.81845 0.141932 7.69435 0.359105 7.69435C0.824476 7.69435 1.28541 7.68992 1.75079 7.69435C1.97239 7.69435 2.10092 7.81402 2.09649 8.0046C2.09649 8.19518 1.96796 8.30598 1.74192 8.31041C1.50702 8.31485 1.27655 8.31041 1.04608 8.31041Z" fill="black"/>
<path id="Vector_13" d="M14.9405 8.3103C14.7012 8.3103 14.4663 8.31474 14.227 8.3103C14.0187 8.30587 13.8901 8.19064 13.8901 8.00449C13.8901 7.81834 14.0142 7.69424 14.2181 7.69424C14.6923 7.68981 15.1666 7.68981 15.6408 7.69424C15.8447 7.69424 15.9821 7.81834 15.9821 8.00006C15.9865 8.18177 15.8447 8.3103 15.632 8.31474C15.4059 8.31474 15.1754 8.3103 14.9405 8.3103Z" fill="black"/>
</g>
</svg>
