<svg width="16" height="16" viewBox="0 0 16 16" fill="none" xmlns="http://www.w3.org/2000/svg">
<g clip-path="url(#clip0_52_659)">
<path d="M2.66667 12.9231C2.66667 12.7564 2.60069 12.6122 2.46875 12.4904C2.33681 12.3686 2.18056 12.3077 2 12.3077C1.81944 12.3077 1.66319 12.3686 1.53125 12.4904C1.39931 12.6122 1.33333 12.7564 1.33333 12.9231C1.33333 13.0897 1.39931 13.234 1.53125 13.3558C1.66319 13.4776 1.81944 13.5385 2 13.5385C2.18056 13.5385 2.33681 13.4776 2.46875 13.3558C2.60069 13.234 2.66667 13.0897 2.66667 12.9231ZM14.6667 7.38462C14.6667 7.05769 14.5312 6.77083 14.2604 6.52404C13.9896 6.27724 13.6806 6.15385 13.3333 6.15385H9.66667C9.66667 5.78205 9.83333 5.27083 10.1667 4.62019C10.5 3.96955 10.6667 3.45513 10.6667 3.07692C10.6667 2.44872 10.5556 1.98397 10.3333 1.68269C10.1111 1.38141 9.66667 1.23077 9 1.23077C8.81944 1.39744 8.6875 1.66987 8.60417 2.04808C8.52083 2.42628 8.41493 2.82853 8.28646 3.25481C8.15799 3.68109 7.95139 4.03205 7.66667 4.30769C7.51389 4.45513 7.24653 4.7468 6.86458 5.18269C6.83681 5.21474 6.75694 5.3109 6.625 5.47115C6.49306 5.63141 6.38368 5.76282 6.29688 5.86539C6.21007 5.96795 6.09028 6.10417 5.9375 6.27404C5.78472 6.44391 5.64583 6.58494 5.52083 6.69712C5.39583 6.8093 5.26215 6.92308 5.11979 7.03846C4.97743 7.15385 4.83854 7.24039 4.70312 7.29808C4.56771 7.35577 4.44444 7.38462 4.33333 7.38462H4V13.5385H4.33333C4.42361 13.5385 4.53299 13.5481 4.66146 13.5673C4.78993 13.5865 4.90451 13.6074 5.00521 13.6298C5.1059 13.6522 5.23785 13.6875 5.40104 13.7356C5.56424 13.7837 5.68576 13.8205 5.76562 13.8462C5.84549 13.8718 5.96875 13.9119 6.13542 13.9663C6.30208 14.0208 6.40278 14.0545 6.4375 14.0673C7.90278 14.5353 9.09028 14.7692 10 14.7692H11.2604C12.5938 14.7692 13.2604 14.234 13.2604 13.1635C13.2604 12.9968 13.2431 12.8173 13.2083 12.625C13.4167 12.5224 13.5816 12.3542 13.7031 12.1202C13.8247 11.8862 13.8854 11.6506 13.8854 11.4135C13.8854 11.1763 13.8229 10.9551 13.6979 10.75C14.066 10.4295 14.25 10.0481 14.25 9.60577C14.25 9.44551 14.2153 9.26763 14.1458 9.07212C14.0764 8.8766 13.9896 8.72436 13.8854 8.61539C14.1076 8.60897 14.2934 8.45833 14.4427 8.16346C14.592 7.86859 14.6667 7.60897 14.6667 7.38462ZM16 7.375C16 7.94551 15.8299 8.46795 15.4896 8.94231C15.5521 9.15385 15.5833 9.375 15.5833 9.60577C15.5833 10.0994 15.4514 10.5609 15.1875 10.9904C15.2083 11.125 15.2188 11.2628 15.2188 11.4038C15.2188 12.0513 15.0104 12.6218 14.5938 13.1154C14.6007 14.0064 14.3056 14.7099 13.7083 15.226C13.1111 15.742 12.3229 16 11.3438 16H10C9.33333 16 8.67535 15.9279 8.02604 15.7837C7.37674 15.6394 6.625 15.4295 5.77083 15.1538C4.96528 14.8974 4.48611 14.7692 4.33333 14.7692H1.33333C0.965278 14.7692 0.651042 14.649 0.390625 14.4087C0.130208 14.1683 0 13.8782 0 13.5385V7.38462C0 7.04487 0.130208 6.75481 0.390625 6.51442C0.651042 6.27404 0.965278 6.15385 1.33333 6.15385H4.1875C4.4375 6 4.91319 5.50321 5.61458 4.66346C6.01736 4.18269 6.38889 3.77244 6.72917 3.43269C6.89583 3.27244 7.0191 2.9984 7.09896 2.61058C7.17882 2.22276 7.28472 1.81731 7.41667 1.39423C7.54861 0.971154 7.76389 0.625 8.0625 0.355769C8.33333 0.11859 8.64583 0 9 0C9.58333 0 10.1076 0.104167 10.5729 0.3125C11.0382 0.520833 11.3924 0.846154 11.6354 1.28846C11.8785 1.73077 12 2.32692 12 3.07692C12 3.67308 11.8333 4.28846 11.5 4.92308H13.3333C14.0556 4.92308 14.6806 5.16667 15.2083 5.65385C15.7361 6.14103 16 6.71474 16 7.375Z" fill="#459AFF"/>
</g>
<defs>
<clipPath id="clip0_52_659">
<rect width="16" height="16" fill="white"/>
</clipPath>
</defs>
</svg>
