<svg width="17" height="16" viewBox="0 0 17 16" fill="none" xmlns="http://www.w3.org/2000/svg">
<g clip-path="url(#clip0_52_2599)">
<path d="M0.607422 1C0.607422 0.734784 0.712779 0.48043 0.900315 0.292893C1.08785 0.105357 1.34221 0 1.60742 0L6.60742 0C6.87264 0 7.12699 0.105357 7.31453 0.292893C7.50206 0.48043 7.60742 0.734784 7.60742 1V15C7.60742 15.2652 7.50206 15.5196 7.31453 15.7071C7.12699 15.8946 6.87264 16 6.60742 16H1.60742C1.34221 16 1.08785 15.8946 0.900315 15.7071C0.712779 15.5196 0.607422 15.2652 0.607422 15V1ZM9.60742 1C9.60742 0.734784 9.71278 0.48043 9.90032 0.292893C10.0879 0.105357 10.3422 0 10.6074 0L15.6074 0C15.8726 0 16.127 0.105357 16.3145 0.292893C16.5021 0.48043 16.6074 0.734784 16.6074 1V6C16.6074 6.26522 16.5021 6.51957 16.3145 6.70711C16.127 6.89464 15.8726 7 15.6074 7H10.6074C10.3422 7 10.0879 6.89464 9.90032 6.70711C9.71278 6.51957 9.60742 6.26522 9.60742 6V1ZM9.60742 10C9.60742 9.73478 9.71278 9.48043 9.90032 9.29289C10.0879 9.10536 10.3422 9 10.6074 9H15.6074C15.8726 9 16.127 9.10536 16.3145 9.29289C16.5021 9.48043 16.6074 9.73478 16.6074 10V15C16.6074 15.2652 16.5021 15.5196 16.3145 15.7071C16.127 15.8946 15.8726 16 15.6074 16H10.6074C10.3422 16 10.0879 15.8946 9.90032 15.7071C9.71278 15.5196 9.60742 15.2652 9.60742 15V10Z" fill="black"/>
</g>
<defs>
<clipPath id="clip0_52_2599">
<rect width="16" height="16" fill="white" transform="translate(0.607422)"/>
</clipPath>
</defs>
</svg>
