<svg width="current" height="current" viewBox="0 0 8 14" fill="none" xmlns="http://www.w3.org/2000/svg">
<g id="Group">
<path id="Vector" d="M5.58815 6.97442C4.8757 6.26873 4.17538 5.5752 3.47507 4.88168C2.44686 3.85964 1.41865 2.83355 0.390441 1.81152C0.0949324 1.51951 -0.0548454 1.18694 0.034212 0.761092C0.188038 0.00673177 1.14338 -0.224443 1.65344 0.237907C1.81536 0.383912 1.96514 0.538029 2.11896 0.692146C3.96083 2.53749 5.80675 4.38283 7.64862 6.23223C8.04533 6.62969 8.1101 7.12448 7.82268 7.55033C7.77411 7.62333 7.71339 7.69634 7.64862 7.76123C5.68936 9.72418 3.72604 11.6912 1.76273 13.6501C1.38222 14.0313 0.876208 14.1043 0.463306 13.8529C-0.0305579 13.5487 -0.147952 12.8998 0.200182 12.405C0.264951 12.3158 0.341864 12.2347 0.418777 12.1535C2.09872 10.4704 3.77867 8.79137 5.45457 7.10826C5.4991 7.07176 5.53148 7.03526 5.58815 6.97442Z" fill="black"/>
</g>
</svg>
