<svg width="7" height="13" viewBox="0 0 7 13" fill="none" xmlns="http://www.w3.org/2000/svg">
<g id="Group">
<path id="Vector" d="M2.68151 2.78414C2.65715 2.82445 2.63627 2.87208 2.60494 2.90872C2.18032 3.35938 1.7557 3.81371 1.32412 4.25704C0.882101 4.71503 0.175561 4.51352 0.0258999 3.89065C-0.0471905 3.58288 0.0363414 3.31541 0.252132 3.09191C0.976074 2.32982 1.70002 1.56405 2.42396 0.801958C2.59102 0.622426 2.76157 0.446557 2.92863 0.267024C3.26624 -0.0847125 3.72914 -0.09204 4.06675 0.263361C4.96472 1.20499 5.8592 2.15028 6.75369 3.09558C7.07738 3.43998 7.08086 3.94927 6.77109 4.2717C6.46133 4.59412 5.99146 4.58313 5.6643 4.24238C5.20835 3.76607 4.75589 3.28976 4.27558 2.78414C4.27558 2.86841 4.27558 2.92337 4.27558 2.97833C4.27558 6.02305 4.27558 9.06778 4.27558 12.1088C4.27558 12.4532 4.16072 12.7244 3.87184 12.8966C3.40894 13.1714 2.8277 12.8709 2.74416 12.3213C2.73024 12.2371 2.73024 12.1491 2.73024 12.0612C2.73024 9.0348 2.73024 6.0084 2.73024 2.98566C2.73024 2.92704 2.73024 2.87208 2.73024 2.81345C2.71632 2.80613 2.69892 2.79513 2.68151 2.78414Z" fill="black"/>
</g>
</svg>
