<svg width="current" height="current" viewBox="0 0 8 14" fill="none" xmlns="http://www.w3.org/2000/svg">
<g id="Group">
<path id="Vector" d="M5.43298 6.97442C4.74031 6.26873 4.05945 5.5752 3.37859 4.88168C2.37894 3.85964 1.3793 2.83355 0.37965 1.81152C0.09235 1.51951 -0.0532673 1.18694 0.0333164 0.761092C0.18287 0.00673179 1.11168 -0.224443 1.60756 0.237907C1.76499 0.383912 1.91061 0.538029 2.06016 0.692146C3.85086 2.53749 5.64551 4.38283 7.43621 6.23223C7.8219 6.62969 7.88487 7.12448 7.60544 7.55033C7.55821 7.62333 7.49918 7.69634 7.43621 7.76123C5.53137 9.72418 3.6226 11.6912 1.71382 13.6501C1.34388 14.0313 0.851924 14.1043 0.450491 13.8529C-0.0296544 13.5487 -0.143787 12.8998 0.194676 12.405C0.257646 12.3158 0.332422 12.2347 0.407199 12.1535C2.04048 10.4704 3.67376 8.79137 5.30311 7.10826C5.3464 7.07176 5.37788 7.03526 5.43298 6.97442Z" fill="black"/>
</g>
</svg>
