<svg width="current" height="current" viewBox="0 0 8 14" fill="none" xmlns="http://www.w3.org/2000/svg">
<g id="Group">
<path id="Vector" d="M2.34485 7.02558C3.03752 7.73127 3.71838 8.42479 4.39924 9.11832C5.39889 10.1404 6.39854 11.1664 7.39818 12.1885C7.68548 12.4805 7.8311 12.8131 7.74452 13.2389C7.59496 13.9933 6.66616 14.2244 6.17027 13.7621C6.01285 13.6161 5.86723 13.462 5.71767 13.3079C3.92697 11.4625 2.13233 9.61717 0.341622 7.76777C-0.0440685 7.37031 -0.107038 6.87552 0.172391 6.44967C0.219618 6.37667 0.278652 6.30366 0.341622 6.23877C2.24646 4.27582 4.15523 2.3088 6.06401 0.3499C6.43396 -0.0313358 6.92591 -0.104338 7.32734 0.147115C7.80749 0.451293 7.92162 1.1002 7.58316 1.595C7.52019 1.68422 7.44541 1.76534 7.37063 1.84645C5.73735 3.52957 4.10407 5.20863 2.47473 6.89174C2.43143 6.92824 2.39995 6.96474 2.34485 7.02558Z" fill="black"/>
</g>
</svg>
