<svg width="current" height="current" viewBox="0 0 8 14" fill="none" xmlns="http://www.w3.org/2000/svg">
<g id="Group">
<path id="Vector" d="M2.41185 7.02558C3.12431 7.73127 3.82462 8.42479 4.52494 9.11832C5.55314 10.1404 6.58135 11.1664 7.60956 12.1885C7.90507 12.4805 8.05485 12.8131 7.96579 13.2389C7.81196 13.9933 6.85662 14.2244 6.34656 13.7621C6.18464 13.6161 6.03486 13.462 5.88104 13.3079C4.03917 11.4625 2.19325 9.61717 0.351383 7.76777C-0.0453276 7.37031 -0.110096 6.87552 0.177316 6.44967C0.225893 6.37667 0.286614 6.30366 0.351383 6.23877C2.31065 4.27582 4.27396 2.3088 6.23727 0.3499C6.61778 -0.0313358 7.12379 -0.104338 7.53669 0.147115C8.03056 0.451293 8.14795 1.1002 7.79982 1.595C7.73505 1.68422 7.65814 1.76534 7.58122 1.84645C5.90128 3.52957 4.22133 5.20863 2.54543 6.89174C2.5009 6.92824 2.46852 6.96474 2.41185 7.02558Z" fill="black"/>
</g>
</svg>
