<svg width="current" height="current" viewBox="0 0 16 16" fill="none" xmlns="http://www.w3.org/2000/svg">
<g id="f7:clock-fill" clip-path="url(#clip0_975_3918)">
<path id="Vector" d="M8 15.9686C12.3517 15.9686 15.9687 12.3593 15.9687 7.99992C15.9687 3.64825 12.3437 0.03125 7.992 0.03125C3.633 0.03125 0.031662 3.64825 0.031662 7.99992C0.031662 12.3593 3.64066 15.9686 8 15.9686ZM3.90633 8.84358C3.60166 8.84358 3.367 8.60925 3.367 8.29692C3.367 7.99225 3.60166 7.75758 3.90633 7.75758H7.453V3.03092C7.45182 2.95983 7.46497 2.88923 7.49164 2.82332C7.51832 2.75741 7.55798 2.69755 7.60827 2.64729C7.65856 2.59703 7.71845 2.5574 7.78438 2.53077C7.8503 2.50413 7.92091 2.49103 7.992 2.49225C8.297 2.49225 8.539 2.72658 8.539 3.03125V8.29658C8.539 8.60892 8.29666 8.84325 7.99233 8.84325L3.90633 8.84358Z" fill="current"/>
</g>
<defs>
<clipPath id="clip0_975_3918">
<rect width="16" height="16" fill="white"/>
</clipPath>
</defs>
</svg>
