<svg width="current" height="current" viewBox="0 0 16 16" fill="none" xmlns="http://www.w3.org/2000/svg">
<path id="Vector" d="M7.983 10.0929C7.90988 10.199 7.87789 10.2636 7.8322 10.3097C6.10945 12.0488 4.38671 13.788 2.66853 15.5271C2.1476 16.0576 1.24281 16.1545 0.616774 15.7531C-0.0732379 15.3103 -0.210327 14.2493 0.338027 13.5758C0.397432 13.5019 0.465977 13.4327 0.534521 13.3635C2.26184 11.6152 3.98915 9.86683 5.72104 8.11847C5.75759 8.08157 5.79872 8.05389 5.85355 8.00776C5.78958 7.93856 5.74388 7.89243 5.69819 7.8463C3.98001 6.10716 2.25727 4.36803 0.539091 2.6289C0.100408 2.18604 -0.0366809 1.65092 0.150673 1.06045C0.338028 0.469971 0.753863 0.119376 1.35705 0.022501C1.85514 -0.0605346 2.29382 0.087084 2.65482 0.451518C4.35929 2.16297 6.06376 3.87904 7.76822 5.59511C7.84134 5.66892 7.90074 5.74734 7.97386 5.83038C8.04697 5.76118 8.09267 5.71966 8.13379 5.67815C9.83369 3.95746 11.5336 2.23678 13.2335 0.520714C14.0286 -0.281963 15.3035 -0.0559217 15.7331 0.958958C15.9798 1.53559 15.8519 2.19065 15.4178 2.63351C13.7087 4.3588 11.9997 6.08871 10.2907 7.81401C10.2404 7.86475 10.1855 7.90165 10.1261 7.9524C10.1855 8.01237 10.2221 8.0585 10.2587 8.0954C11.9723 9.81609 13.6813 11.5414 15.3995 13.2621C15.6874 13.5481 15.9113 13.8571 15.9798 14.2723C16.1261 15.1488 15.4589 15.9699 14.5815 15.9976C14.0332 16.0161 13.5808 15.8362 13.1878 15.4348C11.5016 13.7141 9.80627 12.0119 8.11551 10.2958C8.07896 10.2543 8.05154 10.1944 7.983 10.0929Z" fill="current"/>
</svg>
