<svg width="current" height="current" viewBox="0 0 18 16" fill="none" xmlns="http://www.w3.org/2000/svg">
<g id="Group">
<path id="Vector" d="M17.2981 8.00869C17.3586 11.6764 14.673 15.1766 10.6981 15.8747C9.08763 16.1587 7.52838 15.9585 6.03429 15.2883C5.53161 15.0602 5.31285 14.5715 5.51299 14.106C5.71313 13.6359 6.23444 13.4451 6.74177 13.6685C8.3848 14.39 10.0511 14.4505 11.6941 13.7477C13.8631 12.8168 15.1664 11.1505 15.4736 8.80461C15.8971 5.56975 13.8352 2.66536 10.6701 1.93461C7.28169 1.148 3.81877 3.42869 3.20903 6.85438C3.14387 7.22209 3.12525 7.60375 3.10663 7.98076C3.09267 8.2228 3.18576 8.30658 3.42779 8.31123C3.67913 8.31589 3.92582 8.30658 4.17716 8.31589C4.43781 8.3252 4.5309 8.49276 4.39126 8.71617C3.74895 9.73085 3.10663 10.7455 2.45966 11.7602C2.31072 11.9929 2.1385 11.9883 1.98956 11.7555C1.3519 10.7502 0.714234 9.74481 0.0765712 8.73944C-0.0816808 8.4881 0.0114087 8.32054 0.299986 8.31123C0.528055 8.30658 0.751469 8.31123 0.979538 8.30658C1.25415 8.30192 1.32397 8.2228 1.33328 7.95284C1.47757 4.52715 3.10198 2.06028 6.21582 0.659283C9.55307 -0.844111 13.5978 0.305543 15.7482 3.2751C16.7908 4.70867 17.2981 6.25396 17.2981 8.00869Z" fill="current"/>
<path id="Vector_2" d="M8.31055 6.39834C8.31055 5.90496 8.31055 5.41159 8.31055 4.91821C8.31055 4.46673 8.6224 4.13626 9.04595 4.14092C9.46485 4.14557 9.76274 4.46673 9.7674 4.91356C9.7674 5.81187 9.77205 6.71484 9.7674 7.61315C9.7674 7.72486 9.80463 7.79002 9.89772 7.85053C10.6936 8.35787 11.4895 8.86986 12.2808 9.38651C12.7602 9.69836 12.7416 10.3733 12.2529 10.6386C12.0155 10.7689 11.7688 10.7735 11.5407 10.6292C10.6238 10.0474 9.71154 9.46563 8.80857 8.86521C8.4688 8.63714 8.31985 8.28805 8.3152 7.87846C8.31055 7.38508 8.31055 6.89171 8.31055 6.39834Z" fill="current"/>
</g>
</svg>
