<svg width="current" height="current" viewBox="0 0 18 16" fill="none" xmlns="http://www.w3.org/2000/svg">
<path id="Vector" d="M5.75728 6.24676C6.72293 5.76841 7.64492 5.26046 8.46985 4.58485C8.95511 4.18047 9.38698 3.72677 9.73637 3.19417C10.1294 2.58267 10.3769 1.91692 10.4545 1.18706C10.537 0.363499 11.1145 -0.100061 11.9006 0.0182947C13.0652 0.190897 13.8804 1.14267 13.9096 2.34102C13.9338 3.3717 13.7397 4.34321 13.2545 5.25553C13.2351 5.29005 13.2205 5.31964 13.2108 5.35416C13.2059 5.36402 13.2108 5.37882 13.2156 5.40348C13.2787 5.40348 13.3467 5.40348 13.4097 5.40348C14.3317 5.40348 15.2489 5.40841 16.1708 5.40348C16.9084 5.39854 17.481 5.70429 17.811 6.37991C18.1361 7.05552 18.0342 7.70648 17.5635 8.29332C17.5538 8.30812 17.5441 8.32291 17.5344 8.33771C18.2089 9.16127 18.1022 10.3399 17.1705 11.0007C17.5538 12.1103 17.4228 12.6478 16.593 13.3629C16.6512 13.5404 16.7289 13.718 16.7677 13.9004C16.9812 14.9952 16.2 15.9766 15.079 15.9864C13.3127 15.9963 11.5415 15.9963 9.77519 15.9667C8.3728 15.9421 7.01409 15.656 5.71846 15.0938C5.67478 15.0741 5.63111 15.0593 5.59229 15.0495C5.47583 15.1974 5.37878 15.3453 5.25746 15.4736C4.93234 15.8188 4.52473 15.9963 4.05889 15.9963C2.90398 16.0012 1.74422 16.0012 0.589314 15.9963C0.225373 15.9963 0.00700923 15.7695 0.00215669 15.3897C-0.00269586 14.8621 0.00215669 14.3295 0.00215669 13.8018C0.00215669 11.2473 0.00215669 8.69277 0.00215669 6.13827C0.00215669 5.5958 0.186553 5.40348 0.720333 5.40348C2.14698 5.40348 3.57848 5.40348 5.00513 5.40348C5.57288 5.40348 5.74272 5.57115 5.75728 6.1432C5.75243 6.16786 5.75243 6.19251 5.75728 6.24676ZM5.75728 10.6802C5.75728 11.5974 5.75728 12.5147 5.75728 13.4319C5.75728 13.9054 5.75728 13.9004 6.1843 14.0829C7.58669 14.6845 9.06186 14.8719 10.5662 14.8818C12.0413 14.8867 13.5214 14.8769 14.9965 14.8719C15.0645 14.8719 15.1324 14.867 15.1955 14.8571C15.4769 14.8127 15.6807 14.581 15.705 14.29C15.7293 14.0138 15.5497 13.7327 15.2828 13.6489C15.21 13.6243 15.1275 13.6193 15.0499 13.6095C14.7296 13.5651 14.5258 13.3333 14.5452 13.0226C14.5598 12.7317 14.7879 12.5147 15.1033 12.5048C15.278 12.4999 15.4527 12.5048 15.6322 12.4999C16.0253 12.49 16.297 12.2237 16.2922 11.8637C16.2873 11.5037 16.0107 11.2473 15.6225 11.2424C15.443 11.2374 15.2586 11.2473 15.079 11.2374C14.8412 11.2226 14.652 11.0648 14.5889 10.838C14.4919 10.473 14.749 10.1426 15.147 10.1328C15.5206 10.1278 15.8991 10.1328 16.2727 10.1278C16.5396 10.1229 16.7531 9.96017 16.8405 9.71359C16.9861 9.29935 16.6949 8.8851 16.2436 8.87524C15.87 8.86538 15.4915 8.87524 15.1178 8.87031C14.8607 8.86538 14.6568 8.70264 14.5938 8.46593C14.4967 8.10593 14.749 7.77059 15.1324 7.76072C15.5206 7.75086 15.9088 7.76072 16.297 7.75579C16.6318 7.75086 16.8842 7.49442 16.8987 7.16401C16.9181 6.77936 16.6367 6.50319 16.2145 6.49826C14.5016 6.49826 12.7886 6.49826 11.0757 6.49826C10.7408 6.49826 10.4934 6.26155 10.4934 5.94594C10.4934 5.63525 10.7408 5.39361 11.0757 5.38868C11.3134 5.38375 11.5464 5.39361 11.7841 5.38375C11.8472 5.37882 11.9297 5.34923 11.9588 5.29991C12.5703 4.37279 12.8905 3.36184 12.8177 2.23746C12.7789 1.66541 12.3082 1.16733 11.7502 1.10322C11.6094 1.08843 11.5706 1.13281 11.5415 1.27582C11.4493 1.73938 11.3765 2.20787 11.2212 2.65171C10.7991 3.85992 9.99355 4.78211 9.01334 5.56128C8.06224 6.3158 6.99953 6.87306 5.91741 7.39579C5.80095 7.45004 5.76213 7.51415 5.76213 7.64237C5.75728 8.66319 5.75728 9.67414 5.75728 10.6802ZM3.41835 14.8818C3.60275 14.8818 3.76288 14.8818 3.92301 14.8818C4.41797 14.8818 4.65575 14.6352 4.65575 14.1322C4.65575 11.6665 4.65575 9.19579 4.65575 6.73004C4.65575 6.66593 4.6509 6.59689 4.64604 6.51799C4.5684 6.51799 4.51017 6.51799 4.45194 6.51799C3.39894 6.51799 2.34594 6.52292 1.29293 6.51306C1.11824 6.51306 1.08427 6.5673 1.08427 6.73004C1.08913 9.37825 1.08913 12.0215 1.08913 14.6697C1.08913 14.7338 1.09398 14.8029 1.09883 14.8719C1.5113 14.8719 1.90921 14.8719 2.32653 14.8719C2.32653 14.798 2.32653 14.7289 2.32653 14.6648C2.32653 14.1667 2.32653 13.6686 2.32653 13.1706C2.32653 13.0719 2.33138 12.9733 2.36049 12.8796C2.44299 12.6232 2.70017 12.4802 2.96706 12.5245C3.22425 12.5689 3.40864 12.7908 3.4135 13.0917C3.41835 13.6095 3.4135 14.1273 3.4135 14.6401C3.41835 14.7141 3.41835 14.7881 3.41835 14.8818Z" fill="current"/>
</svg>
