<svg width="current" height="current" viewBox="0 0 16 16" fill="none" xmlns="http://www.w3.org/2000/svg">
<g id="fa:thumbs-down" clip-path="url(#clip0_328_1671)">
<path id="Vector" d="M2.56 12.6667C2.56 12.4861 2.49667 12.3299 2.37 12.1979C2.24333 12.066 2.09333 12 1.92 12C1.74 12 1.58833 12.066 1.465 12.1979C1.34167 12.3299 1.28 12.4861 1.28 12.6667C1.28 12.8542 1.34167 13.0122 1.465 13.1406C1.58833 13.2691 1.74 13.3333 1.92 13.3333C2.09333 13.3333 2.24333 13.2691 2.37 13.1406C2.49667 13.0122 2.56 12.8542 2.56 12.6667ZM4.16 7.33333L4.16 14C4.16 14.1806 4.09667 14.3368 3.97 14.4687C3.84333 14.6007 3.69333 14.6667 3.52 14.6667L0.64 14.6667C0.466667 14.6667 0.316667 14.6007 0.19 14.4688C0.0633332 14.3368 -1.59061e-07 14.1806 -1.74846e-07 14L-7.57664e-07 7.33333C-7.73449e-07 7.15278 0.0633326 6.99653 0.189999 6.86458C0.316666 6.73264 0.466666 6.66667 0.639999 6.66667L3.52 6.66667C3.69333 6.66667 3.84333 6.73264 3.97 6.86458C4.09667 6.99653 4.16 7.15278 4.16 7.33333ZM15.45 8.88542C15.8167 8.4618 16 7.94444 16 7.33333C15.9933 6.79167 15.8017 6.32292 15.425 5.92708C15.0483 5.53125 14.6 5.33333 14.08 5.33333L11.31 5.33333C11.3367 5.23611 11.3633 5.15278 11.39 5.08333C11.4167 5.01389 11.4533 4.9375 11.5 4.85417C11.5467 4.77083 11.58 4.70833 11.6 4.66667C11.72 4.40972 11.81 4.21181 11.87 4.07292C11.93 3.93403 11.9933 3.7309 12.06 3.46354C12.1267 3.19618 12.16 2.93056 12.16 2.66667C12.16 2.5 12.1583 2.36458 12.155 2.26042C12.1517 2.15625 12.135 2 12.105 1.79167C12.075 1.58333 12.035 1.40972 11.985 1.27083C11.935 1.13194 11.855 0.975695 11.745 0.802083C11.635 0.628472 11.5017 0.487847 11.345 0.380208C11.1883 0.27257 10.9883 0.182292 10.745 0.109375C10.5017 0.0364581 10.2267 5.96306e-08 9.92 8.64402e-08C9.74667 1.01594e-07 9.59667 0.0659724 9.47 0.197917C9.33667 0.336805 9.22333 0.510417 9.13 0.71875C9.03667 0.927083 8.97167 1.10764 8.935 1.26042C8.89833 1.41319 8.85667 1.625 8.81 1.89583C8.75 2.1875 8.705 2.39757 8.675 2.52604C8.645 2.65451 8.58667 2.82292 8.5 3.03125C8.41333 3.23958 8.31 3.40625 8.19 3.53125C7.97 3.76042 7.63333 4.17708 7.18 4.78125C6.85333 5.22569 6.51667 5.64583 6.17 6.04167C5.82333 6.4375 5.57 6.64236 5.41 6.65625C5.24333 6.67014 5.1 6.74132 4.98 6.86979C4.86 6.99826 4.8 7.14931 4.8 7.32292L4.8 14C4.8 14.1806 4.86333 14.3351 4.99 14.4635C5.11667 14.592 5.26667 14.6597 5.44 14.6667C5.67333 14.6736 6.2 14.8264 7.02 15.125C7.53333 15.3056 7.935 15.4427 8.225 15.5365C8.515 15.6302 8.92 15.7309 9.44 15.8385C9.96 15.9462 10.44 16 10.88 16L12.17 16C13.0567 15.9861 13.7133 15.7153 14.14 15.1875C14.5267 14.7083 14.69 14.0799 14.63 13.3021C14.89 13.0451 15.07 12.7187 15.17 12.3229C15.2833 11.8993 15.2833 11.4931 15.17 11.1042C15.4767 10.6806 15.62 10.2049 15.6 9.67708C15.6 9.45486 15.55 9.19097 15.45 8.88542Z" fill="current"/>
</g>
<defs>
<clipPath id="clip0_328_1671">
<rect width="16" height="16" fill="white" transform="matrix(1 -8.74228e-08 -8.74228e-08 -1 0 16)"/>
</clipPath>
</defs>
</svg>
