<svg width="current" height="current" viewBox="0 0 18 16" fill="none" xmlns="http://www.w3.org/2000/svg">
<path id="Vector" d="M5.77296 6.25817C7.15673 5.56213 8.48708 4.82659 9.463 3.59741C10.0262 2.88656 10.3758 2.08192 10.468 1.16868C10.5554 0.359096 11.1381 -0.0999954 11.9149 0.0184797C13.0851 0.196192 13.8959 1.14399 13.9202 2.34355C13.9445 3.38021 13.7454 4.36257 13.255 5.27581C13.2404 5.30543 13.2259 5.33999 13.2016 5.39429C13.2793 5.39922 13.3424 5.40416 13.4055 5.40416C14.362 5.40416 15.3185 5.39922 16.275 5.40416C17.1101 5.4091 17.7899 5.96198 17.9598 6.78143C18.0666 7.29482 17.9598 7.76872 17.6491 8.19326C17.6151 8.24262 17.5762 8.28705 17.5422 8.33642C18.2123 9.146 18.1297 10.3307 17.1781 11.007C17.6296 11.9154 17.3529 12.8335 16.6003 13.3667C16.6586 13.5493 16.7363 13.7221 16.7751 13.9047C16.9839 14.9957 16.2119 15.9781 15.1 15.9879C13.255 15.9978 11.4051 16.0027 9.56011 15.9583C8.23946 15.9238 6.95766 15.6325 5.73412 15.0994C5.69042 15.0796 5.64672 15.0648 5.58846 15.0401C5.56418 15.0747 5.53991 15.1043 5.51563 15.1389C5.16605 15.7066 4.65624 15.9929 4.00078 15.9978C2.87434 16.0027 1.74791 15.9978 0.62148 15.9978C0.223344 15.9978 0 15.7757 0 15.3709C0 12.2609 0 9.15093 0 6.04096C0 5.62136 0.218489 5.40416 0.63119 5.40416C2.10235 5.40416 3.57351 5.40416 5.04467 5.40416C5.55933 5.40416 5.74869 5.59175 5.7584 6.11007C5.76811 6.14957 5.76811 6.18906 5.77296 6.25817ZM3.43756 14.897C3.61721 14.897 3.77258 14.897 3.92795 14.897C4.43775 14.897 4.67566 14.66 4.67566 14.1466C4.67566 11.6784 4.67566 9.20523 4.67566 6.737C4.67566 6.67283 4.67081 6.60866 4.66595 6.53955C3.47155 6.53955 2.29656 6.53955 1.11672 6.53955C1.11672 9.32865 1.11672 12.1029 1.11672 14.8871C1.52942 14.8871 1.9227 14.8871 2.34026 14.8871C2.34026 14.8081 2.34026 14.7439 2.34026 14.6798C2.34026 14.1812 2.34026 13.6826 2.34026 13.184C2.34026 13.0853 2.34512 12.9866 2.37425 12.8928C2.45679 12.6361 2.71412 12.4929 2.98116 12.5373C3.23849 12.5818 3.42299 12.8039 3.42785 13.11C3.4327 13.6332 3.42785 14.1565 3.42785 14.6798C3.43756 14.739 3.43756 14.8081 3.43756 14.897Z" fill="current"/>
</svg>
