<svg width="current" height="current" viewBox="0 0 18 20" fill="none" xmlns="http://www.w3.org/2000/svg">
<g id="Group">
<path id="Vector" d="M8.80686 14.1155C6.55383 14.1155 4.30633 14.1155 2.05329 14.1211C1.85401 14.1211 1.73222 14.0657 1.61597 13.8996C0.464544 12.2611 -0.105634 10.4343 0.016152 8.44143C0.220973 5.14215 1.80419 2.66768 4.68276 1.04572C6.08329 0.25965 7.61115 -0.0946359 9.20543 0.021614C12.6874 0.265185 15.2172 1.98679 16.7728 5.10893C17.4758 6.52608 17.7138 8.04286 17.5754 9.62054C17.4315 11.237 16.8724 12.7095 15.9092 14.0159C15.8594 14.0823 15.7376 14.1211 15.649 14.1211C13.717 14.1266 11.7795 14.1266 9.84758 14.1266C9.49883 14.1155 9.15561 14.1155 8.80686 14.1155ZM2.80615 6.4375C3.58669 6.83054 4.32847 7.1959 5.06472 7.57233C5.1699 7.62768 5.27508 7.73286 5.33044 7.83804C5.67919 8.5134 6.01133 9.19429 6.35454 9.86965C6.38776 9.93054 6.42097 9.99143 6.46526 10.0634C6.49293 10.0246 6.50401 10.0136 6.50954 10.0025C6.75311 9.51536 7.04097 9.04483 7.23472 8.53554C7.48936 7.87679 7.91561 7.45054 8.57436 7.1959C9.10026 6.99108 9.5874 6.70322 10.1188 6.4375C10.0358 6.39322 9.9749 6.36 9.914 6.32679C9.23311 5.98911 8.55222 5.65143 7.8824 5.30268C7.76615 5.24179 7.65543 5.12554 7.59454 5.00929C7.24579 4.34501 6.91918 3.66411 6.58151 2.99429C6.55383 2.9334 6.51508 2.87804 6.47079 2.79501C6.42097 2.88358 6.38222 2.94447 6.35454 3.0109C6.01686 3.68072 5.68472 4.35608 5.34151 5.0259C5.28615 5.13661 5.17544 5.24179 5.05919 5.30268C4.40597 5.64036 3.74169 5.96697 3.08294 6.29911C2.99436 6.3434 2.91686 6.38215 2.80615 6.4375ZM12.3331 13.5952C12.3774 13.5121 12.4106 13.4513 12.4438 13.3904C12.787 12.7039 13.1247 12.0175 13.479 11.3421C13.5288 11.2425 13.6285 11.1429 13.7281 11.093C14.409 10.7443 15.0954 10.4066 15.7819 10.0634C15.8428 10.0357 15.8981 10.0025 15.9811 9.95822C15.8981 9.91393 15.8428 9.88072 15.7819 9.85304C15.0954 9.50982 14.409 9.17215 13.7336 8.8234C13.634 8.77357 13.5344 8.67393 13.4845 8.57429C13.1303 7.8934 12.7926 7.20697 12.4494 6.52608C12.4217 6.46518 12.3885 6.40983 12.3442 6.32679C12.2999 6.40429 12.2667 6.45411 12.2445 6.50947C11.9013 7.1959 11.5636 7.88233 11.2094 8.55768C11.154 8.6684 11.0433 8.77357 10.9326 8.83447C10.2572 9.18322 9.57633 9.51536 8.90097 9.85857C8.84008 9.88625 8.78472 9.91947 8.70168 9.96375C8.78472 10.008 8.84561 10.0413 8.90097 10.0689C9.59293 10.4121 10.2849 10.7554 10.9713 11.1096C11.0599 11.1539 11.1485 11.2425 11.1928 11.3311C11.5415 12.0064 11.8736 12.6873 12.2169 13.3627C12.2445 13.4291 12.2833 13.5011 12.3331 13.5952Z" fill="current"/>
<path id="Vector_2" d="M17.6032 18.8485C17.6032 19.2415 17.6032 19.6124 17.6032 19.9999C11.7465 19.9999 5.88413 19.9999 0.0107422 19.9999C0.0107422 19.6235 0.0107422 19.2526 0.0107422 18.8485C0.370563 18.8485 0.724849 18.8374 1.08467 18.854C1.26181 18.8651 1.32271 18.7931 1.35592 18.6381C1.61056 17.5864 1.87628 16.5346 2.13092 15.4828C2.16967 15.3278 2.23056 15.2835 2.38003 15.289C2.80074 15.3001 3.22146 15.3001 3.64217 15.289C3.83038 15.2835 3.97985 15.3333 4.13485 15.4496C5.63503 16.5955 7.14074 17.7247 8.64092 18.8706C8.76824 18.9647 8.84574 18.9703 8.97306 18.8706C10.4843 17.7192 12.0011 16.5733 13.5123 15.4274C13.6397 15.3278 13.767 15.2835 13.9275 15.289C14.3482 15.3001 14.7689 15.3056 15.1897 15.289C15.3723 15.2835 15.4498 15.3333 15.4941 15.5215C15.7377 16.5512 16.0034 17.5697 16.2414 18.5994C16.2913 18.8097 16.3743 18.8762 16.5847 18.8596C16.9168 18.8374 17.2489 18.8485 17.6032 18.8485Z" fill="current"/>
<path id="Vector_3" d="M11.7131 15.3113C10.7277 16.0586 9.77555 16.7893 8.8068 17.5311C7.84359 16.7949 6.88591 16.0697 5.89502 15.3113C7.84913 15.3113 9.76448 15.3113 11.7131 15.3113Z" fill="current"/>
</g>
</svg>
