<svg width="current" height="current" viewBox="0 0 20 16" fill="none" xmlns="http://www.w3.org/2000/svg">
<g id="Group">
<path id="Vector" d="M10.0126 0C12.9047 0 15.7967 0 18.6888 0C19.1116 0 19.4666 0.150159 19.7328 0.50053C20.0565 0.923199 20.0565 1.40704 19.8894 1.8742C19.7067 2.37473 19.31 2.625 18.8088 2.66393C18.7618 2.66949 18.7201 2.66393 18.6731 2.66393C12.8994 2.66393 7.12055 2.66393 1.34689 2.66393C0.668248 2.66393 0.167098 2.25794 0.0365908 1.60169C-0.120018 0.811969 0.428114 0.044491 1.18506 0.00556093C1.26858 -5.09248e-07 1.35211 0.00556093 1.44085 0.00556093C4.29636 -5.09248e-07 7.15187 0 10.0126 0Z" fill="current"/>
<path id="Vector_2" d="M9.98659 9.32653C7.09454 9.32653 4.20249 9.32653 1.31044 9.32653C0.548277 9.32653 -0.0102967 8.73701 0.000143962 7.96397C0.0105846 7.27992 0.527396 6.70709 1.16949 6.6626C1.20604 6.6626 1.2478 6.6626 1.28434 6.6626C7.09454 6.6626 12.8995 6.6626 18.7097 6.6626C19.2004 6.6626 19.6024 6.86281 19.8269 7.32997C20.2393 8.18643 19.8373 9.26535 18.7933 9.32097C18.2347 9.34877 17.6709 9.32653 17.1123 9.32653C14.7423 9.32653 12.3618 9.32653 9.98659 9.32653Z" fill="current"/>
<path id="Vector_3" d="M10.0076 15.9891C7.11035 15.9891 4.21308 15.9891 1.31581 15.9891C0.553647 15.9891 -0.00492556 15.3996 0.00551506 14.6266C0.0159557 13.9425 0.532766 13.3697 1.17486 13.3252C1.21141 13.3252 1.25317 13.3252 1.28971 13.3252C7.09991 13.3252 12.9049 13.3252 18.7151 13.3252C19.2058 13.3252 19.6078 13.5254 19.8322 13.9926C20.2446 14.849 19.8427 15.9279 18.7986 15.9836C18.2192 16.0169 17.6397 15.9891 17.0603 15.9891C14.7059 15.9891 12.3568 15.9891 10.0076 15.9891Z" fill="current"/>
</g>
</svg>
