<svg width="16" height="4" viewBox="0 0 16 4" fill="none" xmlns="http://www.w3.org/2000/svg">
<g id="Group">
<path id="Vector" d="M15.9957 1.80636C16.0707 2.78859 15.154 3.62931 14.1873 3.61266C13.3122 3.59601 12.3872 2.95507 12.3872 1.80636C12.3872 0.665978 13.3039 6.01139e-05 14.2123 6.01139e-05C15.179 -0.00826385 16.0707 0.849105 15.9957 1.80636Z" fill="black"/>
<path id="Vector_2" d="M1.82712 6.79366e-05C2.81095 6.79366e-05 3.6129 0.815856 3.6129 1.80645C3.6129 2.8137 2.79442 3.62116 1.79405 3.61284C0.86809 3.60452 0 2.8803 0 1.80645C0.00826751 0.749261 0.859822 -0.00825642 1.82712 6.79366e-05Z" fill="black"/>
<path id="Vector_3" d="M9.80626 1.81063C9.80626 2.81186 8.9859 3.62118 7.98324 3.61284C6.99715 3.6045 6.19336 2.79517 6.19336 1.80228C6.19336 0.792706 7.00543 -0.008279 8.01638 6.45948e-05C9.00247 0.00840819 9.80626 0.817738 9.80626 1.81063Z" fill="black"/>
</g>
</svg>
