<svg width="14" height="4" viewBox="0 0 14 4" fill="none" xmlns="http://www.w3.org/2000/svg">
<path id="Vector" d="M1.4 0.599976C1.7713 0.599976 2.1274 0.747475 2.38995 1.01003C2.6525 1.27258 2.8 1.62867 2.8 1.99998C2.8 2.37128 2.6525 2.72737 2.38995 2.98993C2.1274 3.25248 1.7713 3.39998 1.4 3.39998C1.0287 3.39998 0.672601 3.25248 0.41005 2.98993C0.147499 2.72737 0 2.37128 0 1.99998C0 1.62867 0.147499 1.27258 0.41005 1.01003C0.672601 0.747475 1.0287 0.599976 1.4 0.599976ZM7 0.599976C7.3713 0.599976 7.7274 0.747475 7.98995 1.01003C8.2525 1.27258 8.4 1.62867 8.4 1.99998C8.4 2.37128 8.2525 2.72737 7.98995 2.98993C7.7274 3.25248 7.3713 3.39998 7 3.39998C6.6287 3.39998 6.2726 3.25248 6.01005 2.98993C5.7475 2.72737 5.6 2.37128 5.6 1.99998C5.6 1.62867 5.7475 1.27258 6.01005 1.01003C6.2726 0.747475 6.6287 0.599976 7 0.599976ZM12.6 0.599976C12.9713 0.599976 13.3274 0.747475 13.5899 1.01003C13.8525 1.27258 14 1.62867 14 1.99998C14 2.37128 13.8525 2.72737 13.5899 2.98993C13.3274 3.25248 12.9713 3.39998 12.6 3.39998C12.2287 3.39998 11.8726 3.25248 11.6101 2.98993C11.3475 2.72737 11.2 2.37128 11.2 1.99998C11.2 1.62867 11.3475 1.27258 11.6101 1.01003C11.8726 0.747475 12.2287 0.599976 12.6 0.599976Z" fill="black"/>
</svg>
