<svg width="current" height="current" viewBox="0 0 20 20" fill="none" xmlns="http://www.w3.org/2000/svg">
<path id="Vector" d="M13.1759 14.5866C11.124 16.1089 8.84896 16.6498 6.35093 16.0922C4.37703 15.6517 2.78231 14.5978 1.59463 12.964C-0.869953 9.57385 -0.435027 5.07404 2.60388 2.19127C5.52011 -0.574412 10.0813 -0.741691 13.2651 1.80095C16.5605 4.42723 17.4638 9.47906 14.5978 13.1648C14.6535 13.2205 14.7037 13.2819 14.7651 13.3376C16.3877 14.9602 18.0103 16.5828 19.6329 18.2055C19.9005 18.4731 20.0511 18.7798 19.9842 19.1589C19.9173 19.5381 19.6886 19.8058 19.3262 19.9284C18.9526 20.0567 18.6069 19.9786 18.3225 19.711C18.0103 19.4154 17.7092 19.1032 17.4025 18.8021C16.0475 17.4471 14.687 16.0866 13.332 14.7316C13.2819 14.687 13.2317 14.6424 13.1759 14.5866ZM14.319 8.15198C14.3134 4.73949 11.5645 1.99611 8.15754 2.00169C4.73947 2.00726 2.00725 4.75621 2.01282 8.16871C2.0184 11.57 4.76178 14.3079 8.16312 14.3079C11.57 14.3079 14.3246 11.5533 14.319 8.15198Z" fill="current"/>
</svg>
