<svg width="13" height="16" viewBox="0 0 13 16" fill="none" xmlns="http://www.w3.org/2000/svg">
<g id="tabler:share-2">
<path id="Vector" d="M3.79995 5.90001H3.09995C2.72865 5.90001 2.37255 6.04751 2.11 6.31006C1.84745 6.57261 1.69995 6.92871 1.69995 7.30001V12.9C1.69995 13.2713 1.84745 13.6274 2.11 13.89C2.37255 14.1525 2.72865 14.3 3.09995 14.3H10.1C10.4713 14.3 10.8273 14.1525 11.0899 13.89C11.3525 13.6274 11.5 13.2713 11.5 12.9V7.30001C11.5 6.92871 11.3525 6.57261 11.0899 6.31006C10.8273 6.04751 10.4713 5.90001 10.1 5.90001H9.39995M6.59995 9.40001V1.70001M6.59995 1.70001L4.49995 3.80001M6.59995 1.70001L8.69995 3.80001" stroke="black" stroke-width="1.2" stroke-linecap="round" stroke-linejoin="round"/>
</g>
</svg>
