<svg width="12" height="14" viewBox="0 0 12 14" fill="none" xmlns="http://www.w3.org/2000/svg">
<g id="Group">
<path id="Vector" d="M5.72705 13.9999C4.46853 13.9999 3.214 13.9999 1.95548 13.9999C1.05938 13.9999 0.318612 13.4583 0.0796529 12.6219C0.0278785 12.4467 0.00398289 12.2595 0.00398289 12.0803C2.43022e-07 10.3917 0 8.69904 0 7.0104C0 5.9311 0.844322 5.09474 1.92362 5.09076C2.32985 5.09076 2.74006 5.09076 3.14629 5.09076C3.53261 5.09076 3.81538 5.36158 3.81538 5.72002C3.81936 6.08244 3.54057 6.35724 3.15426 6.36123C2.75599 6.36521 2.35773 6.36123 1.96345 6.36123C1.52934 6.36123 1.27445 6.61213 1.27445 7.04624C1.27445 8.71099 1.27445 10.3757 1.27445 12.0405C1.27445 12.4626 1.53332 12.7215 1.9515 12.7215C4.46455 12.7215 6.98158 12.7215 9.49463 12.7215C9.90484 12.7215 10.1717 12.4626 10.1717 12.0564C10.1757 10.3797 10.1757 8.707 10.1717 7.03031C10.1717 6.61612 9.91281 6.36521 9.49861 6.36123C9.21186 6.35724 8.92113 6.36123 8.63438 6.36123C8.22815 6.35724 7.94936 6.09041 7.95335 5.71205C7.95733 5.34565 8.2401 5.0828 8.64234 5.08678C9.04459 5.09076 9.45082 5.07085 9.84909 5.11864C10.7293 5.23015 11.4382 6.0227 11.4461 6.91083C11.4581 8.65921 11.4621 10.4116 11.4461 12.16C11.4382 13.1875 10.5699 13.992 9.49861 13.996C8.24408 13.9999 6.98556 13.9999 5.72705 13.9999Z" fill="black"/>
<path id="Vector_2" d="M6.36014 2.21535C6.36014 2.2711 6.36014 2.33084 6.36014 2.3866C6.36014 4.5213 6.36014 6.65998 6.36014 8.79468C6.36014 8.90221 6.35616 9.01771 6.3243 9.11727C6.22872 9.41199 5.934 9.58324 5.61937 9.53147C5.3366 9.48766 5.11756 9.23675 5.10163 8.94204C5.09764 8.8823 5.09764 8.82256 5.09764 8.76282C5.09764 6.64007 5.09764 4.5213 5.09764 2.39855C5.09764 2.33881 5.09764 2.27907 5.09764 2.18349C5.0379 2.23526 4.99808 2.26712 4.96622 2.30297C4.53211 2.73309 4.10198 3.1672 3.67186 3.60131C3.48866 3.78849 3.27359 3.86018 3.0187 3.79248C2.55672 3.66901 2.39741 3.09551 2.73195 2.74504C2.97489 2.49015 3.22978 2.24323 3.47671 1.9963C4.05817 1.41483 4.64362 0.829386 5.22509 0.24792C5.55565 -0.0826399 5.9101 -0.0826399 6.24066 0.24792C7.06109 1.06835 7.8855 1.88877 8.70592 2.71318C9.06436 3.0756 8.93293 3.6491 8.459 3.78849C8.20809 3.86018 7.98905 3.79646 7.80584 3.60927C7.37572 3.17516 6.94161 2.74504 6.51148 2.31093C6.47564 2.27509 6.45971 2.21535 6.43183 2.16756C6.40395 2.18349 6.38006 2.19942 6.36014 2.21535Z" fill="black"/>
</g>
</svg>
