<svg width="current" height="current" viewBox="0 0 16 16" fill="none" xmlns="http://www.w3.org/2000/svg">
<path d="M10.3334 7.99999C10.3334 8.30641 10.2731 8.60982 10.1558 8.89292C10.0385 9.17601 9.86667 9.43324 9.65 9.64991C9.43333 9.86658 9.1761 10.0384 8.89301 10.1557C8.60992 10.273 8.3065 10.3333 8.00008 10.3333C7.69366 10.3333 7.39025 10.273 7.10715 10.1557C6.82406 10.0384 6.56684 9.86658 6.35017 9.64991C6.1335 9.43324 5.96162 9.17601 5.84436 8.89292C5.7271 8.60982 5.66675 8.30641 5.66675 7.99999C5.66675 7.38115 5.91258 6.78766 6.35017 6.35007C6.78775 5.91249 7.38124 5.66666 8.00008 5.66666C8.61892 5.66666 9.21241 5.91249 9.65 6.35007C10.0876 6.78766 10.3334 7.38115 10.3334 7.99999Z" fill="current"/>
<path d="M7.99991 2.33334C10.2879 2.33334 12.0826 3.35601 13.3692 4.49401C14.6532 5.62934 15.4572 6.90068 15.7799 7.46734C15.8733 7.62934 15.9224 7.81303 15.9224 8.00001C15.9224 8.18699 15.8733 8.37068 15.7799 8.53268C15.4572 9.09934 14.6532 10.3707 13.3692 11.5067C12.0832 12.644 10.2879 13.6667 7.99991 13.6667C5.71191 13.6667 3.91725 12.644 2.63058 11.5067C1.34658 10.372 0.542581 9.10001 0.219914 8.53334C0.126542 8.37135 0.0773926 8.18766 0.0773926 8.00068C0.0773926 7.8137 0.126542 7.63001 0.219914 7.46801C0.542581 6.90134 1.34658 5.63001 2.63058 4.49334C3.91658 3.35601 5.71191 2.33334 7.99991 2.33334ZM1.08858 7.96334C1.08176 7.97441 1.07786 7.98703 1.07725 8.00001C1.07791 8.01334 1.08125 8.02601 1.08858 8.03734C1.38258 8.55334 2.12258 9.72201 3.29325 10.7573C4.46058 11.79 6.02991 12.6667 7.99991 12.6667C9.96991 12.6667 11.5399 11.79 12.7066 10.7573C13.8772 9.72201 14.6172 8.55334 14.9112 8.03734C14.9183 8.02614 14.9222 8.01324 14.9226 8.00001C14.9222 7.98678 14.9183 7.97388 14.9112 7.96268C14.6172 7.44734 13.8772 6.27801 12.7066 5.24268C11.5392 4.21001 9.96991 3.33334 7.99991 3.33334C6.02991 3.33334 4.45991 4.20934 3.29325 5.24334C2.12258 6.27801 1.38258 7.44734 1.08858 7.96334Z" fill="current"/>
</svg>