<svg width="current" height="current" viewBox="0 0 18 14" fill="none" xmlns="http://www.w3.org/2000/svg">
<g id="Group">
<path id="Vector" d="M1.61786 9.51149C1.22402 9.01417 0.988248 8.71079 0.833147 8.36938C0.687565 8.04892 0.6 7.66032 0.6 7C0.6 6.3392 0.687576 5.95089 0.833098 5.63073C0.988226 5.28943 1.22395 4.98637 1.61803 4.48829C3.08825 2.63195 5.49481 0.6 9 0.6C12.5053 0.6 14.9119 2.63211 16.3821 4.48851C16.7761 4.98683 17.0118 5.29007 17.1669 5.63138C17.3124 5.95159 17.4 6.33971 17.4 7C17.4 7.6608 17.3124 8.04911 17.1669 8.36927C17.0118 8.71052 16.7761 9.01355 16.3821 9.51149C14.9119 11.3679 12.5053 13.4 9 13.4C5.49467 13.4 3.08806 11.3679 1.61786 9.51149Z" stroke="#459AFF" stroke-width="1.2"/>
<path id="Vector_2" d="M6 6.99765C6 5.33176 7.33752 4 9 4C10.6672 4 12 5.33647 12 7.00235C12 8.66823 10.6625 10 9 10C7.33752 10 6 8.66353 6 6.99765Z" fill="#459AFF"/>
</g>
</svg>
