<svg xmlns="http://www.w3.org/2000/svg" xmlns:xlink="http://www.w3.org/1999/xlink" width="16" height="16" viewBox="0 0 16 16">
    <defs>
        <path id="fw2q0bw51a" d="M0 0L16 0 16 16 0 16z"/>
    </defs>
    <g fill="none" fill-rule="evenodd">
        <g>
            <g>
                <g>
                    <g transform="translate(-40 -235) translate(40 234) translate(0 1)">
                        <mask id="6qiig19qnb" fill="#fff">
                            <use xlink:href="#fw2q0bw51a"/>
                        </mask>
                        <path fill="#707070" d="M16 8c0-4.418-3.582-8-8-8S0 3.582 0 8s3.582 8 8 8 8-3.582 8-8" mask="url(#6qiig19qnb)"/>
                    </g>
                    <path fill="#FFF" d="M10.2 10.75c-.81 0-1.467-.658-1.467-1.467V7.45c0-1.213.988-2.2 2.2-2.2.405 0 .734.328.734.733 0 .406-.33.734-.734.734-.404 0-.733.329-.733.733v.366c.809 0 1.467.659 1.467 1.467 0 .809-.658 1.467-1.467 1.467M5.8 10.75c-.809 0-1.467-.658-1.467-1.467V7.45c0-1.213.987-2.2 2.2-2.2.405 0 .734.328.734.733 0 .406-.329.734-.734.734-.404 0-.733.329-.733.733v.366c.809 0 1.467.659 1.467 1.467 0 .809-.658 1.467-1.467 1.467" transform="translate(-40 -235) translate(40 234) translate(0 1)"/>
                </g>
            </g>
        </g>
    </g>
</svg>
